<svg preserveAspectRatio="none" width="100%" height="100%" overflow="visible" style="display: block;" viewBox="0 0 66 39" fill="none" xmlns="http://www.w3.org/2000/svg">
<g id="Group 53">
<path id="Vector" d="M65.7819 11.854L59.3481 23.6641L47.7045 32.3512L31.5414 37.5812L21.6679 38.3194L9.16428 33.9158L5.36675 31.2724L1.83913 27.8152L0 24.7429L0.138092 22.9133C1.66338 24.0615 3.40836 25.0015 5.16589 25.6703C9.57228 27.3421 14.2611 27.3799 18.8684 26.9131C30.9953 25.6766 42.6327 22.4969 53.7428 17.4752C57.4462 15.8033 60.6223 13.3114 63.2335 10.1065C64.106 9.04032 64.7462 7.86058 65.1856 6.63037L65.5057 7.69655L65.7757 11.8603L65.7819 11.854Z" fill="var(--fill-0, #00B1B2)"/>
<path id="Vector_2" d="M60.0386 9.93001C59.0405 10.9331 57.8605 11.7596 56.7934 12.7059C55.2242 14.1001 53.5483 14.2578 51.5145 13.709C43.8191 11.6334 36.2366 12.4598 28.7796 14.977C22.7036 17.0274 16.7217 19.2985 11.6562 23.456C11.1541 23.8724 10.3318 24.2068 9.71664 24.1311C6.25807 23.6895 2.9627 22.7747 0.489598 20.0241C0.445659 19.9736 0.407998 19.9168 0.364059 19.8663L0.552367 17.4059L1.51901 16.3523L9.16428 10.5861L29.401 3.12915L50.4412 0L60.955 1.45102L63.3528 3.85466C63.0389 6.09428 61.8589 8.10678 60.0386 9.93001Z" fill="var(--fill-0, #00B1B2)"/>
<path id="Vector_3" d="M15.9622 23.7901C22.1763 18.5033 42.2122 12.428 49.7005 16.3899C44.2082 18.8882 38.6845 20.5032 33.0667 21.8281C21.9127 24.4588 18.4604 24.8626 15.9622 23.7901Z" fill="var(--fill-0, #00B1B2)"/>
</g>
</svg>
