<svg preserveAspectRatio="none" width="100%" height="100%" overflow="visible" style="display: block;" viewBox="0 0 160 100" fill="none" xmlns="http://www.w3.org/2000/svg">
<g id="_&#227;&#131;&#172;&#227;&#130;&#164;&#227;&#131;&#164;&#227;&#131;&#188;_1">
<path id="Vector" d="M146 66.7682L145.041 64.9624L125.969 67.5096L111.165 60L90.0599 61.2479L75.274 71.3489L72 82.0958L78.6889 95.7717L88.8454 100L119.676 99.31L129.885 94.9936L135.236 87.7335L135.685 84.3274L133.142 76.7811L146 66.7682Z" fill="var(--fill-0, #00B1B2)"/>
<path id="Vector_2" d="M87.6921 30.5909L77.2374 21.3513L64.3594 17.8251L41.3958 17L28.8794 20.8297L18.14 30.046L1.77707 28.0066L0 30.4197L14.2628 40.6401L14.1397 40.9904L17.3707 53.476L31.0488 63.1438L56.7279 64L76.2834 59.8745L88.8768 48.8367L90 45.2872L87.6921 30.5909Z" fill="var(--fill-0, #EA5414)"/>
<g id="Group 57">
<path id="Vector_3" d="M120.899 16.2087C121.202 14.9995 123 15.1094 124.209 14.8277C129.771 13.5498 129.997 14.3262 131.932 8.01238C132.068 7.57955 132.159 7.13298 132.287 6.69328C132.831 4.85891 133.368 3.02454 133.927 1.19703C134.086 0.681762 134.29 0.152748 134.947 0.00160103C135.423 -0.0190099 135.771 0.159618 135.914 0.523744C136.186 1.2039 136.466 1.88407 136.617 2.58484C137.116 4.88639 137.531 7.20855 138.023 9.51698C138.839 13.3369 139.428 13.7766 143.698 13.859C144.393 13.8728 145.095 13.8109 145.783 13.859C146.569 13.9208 147.385 13.9758 148.118 14.2163C149.342 14.6147 149.486 15.6247 148.36 16.1949C147.151 16.8064 145.859 17.3491 144.529 17.6583C140.886 18.524 139.118 20.7568 138.431 23.9652C137.894 26.4454 137.244 28.905 136.662 31.3714C136.504 32.0447 136.194 32.6493 135.393 32.6768C134.562 32.7043 134.274 32.0516 134.063 31.4195C133.398 29.434 132.642 27.4691 132.098 25.4561C131.66 23.8416 130.655 22.7423 129.181 21.8629C127.27 20.7225 125.161 19.8911 123.355 18.5858C122.373 17.8781 120.582 17.5003 120.899 16.1949V16.2087Z" fill="var(--fill-0, black)"/>
<path id="Vector_4" d="M143.216 38.246C144.03 38.0399 144.837 37.8161 145.651 37.6159C147.335 37.1978 148.379 36.3085 148.821 34.6596C149.225 33.1697 149.987 31.7622 150.628 30.3312C150.814 29.913 151.057 29.4714 151.595 29.4007C152.024 29.4007 152.312 29.5715 152.453 29.8659C152.69 30.3606 152.934 30.8612 153.062 31.3853C153.946 34.9069 155.701 37.8985 159.115 39.9008C159.525 40.1423 160.095 40.3896 159.986 40.9314C159.852 41.6381 159.128 41.5438 158.564 41.6145C158.148 41.6675 157.725 41.6852 157.302 41.7205C155.932 41.8324 154.926 42.4272 154.33 43.5873C153.901 44.4295 153.472 45.2716 153.011 46.096C152.594 46.8557 152.21 47.639 151.685 48.3339C150.98 49.2643 150.346 49.2172 149.859 48.2102C149.488 47.4387 149.154 46.6084 149.052 45.778C148.789 43.5814 147.764 41.9855 145.452 41.1434C144.6 40.8313 143.838 40.3071 143.043 39.8655C142.678 39.6652 142.32 39.4238 142.364 38.9703C142.409 38.511 142.794 38.352 143.216 38.2401V38.246Z" fill="var(--fill-0, black)"/>
</g>
</g>
</svg>
