<svg preserveAspectRatio="none" width="100%" height="100%" overflow="visible" style="display: block;" viewBox="0 0 60 70" fill="none" xmlns="http://www.w3.org/2000/svg">
<g id="_&#227;&#131;&#172;&#227;&#130;&#164;&#227;&#131;&#164;&#227;&#131;&#188;_1">
<path id="Vector" d="M43.4231 57.6128L34.8918 48.3111L36.6485 44.4003L42.4233 41.9067L46.3105 35.1166L47.3851 27.3578L47.1328 27.3309L47.1142 24.4336L44.124 21.8324L38.2838 23.1689L31.2942 27.7076L27.2948 33.5648L25.9492 33.7442L23.5384 28.479L23.7813 26.5236L24.9587 24.8104L27.6406 17.6076L27.4817 13.06L24.6036 7.22066L15.2219 0L9.03598 0.995643L7.59695 3.03178L5.15807 11.7952L12.1476 24.2094L19.0998 30.9188L20.2025 33.1612L19.2774 34.1389L17.5954 33.825L5.7748 37.2514L1.44837 41.2878L0 43.315L0.28033 44.795L7.39137 48.5264L13.6988 49.8449L22.4731 48.8762L26.7996 47.0374L29.4814 47.764L32.023 51.1007L33.5649 54.0518L32.8267 55.0026L30.7055 54.6707L21.5574 55.6932L13.1288 62.6807L14.3155 67.4705L27.3228 70L28.1732 69.9372L42.6289 64.2324L44.965 63.9275L49.0578 66.2237L58.0564 68.798L60 66.8426L58.9815 65.2012L43.4231 57.6128Z" fill="var(--fill-0, #C8C8C8)"/>
</g>
</svg>
