<svg preserveAspectRatio="none" width="100%" height="100%" overflow="visible" style="display: block;" viewBox="0 0 150 90" fill="none" xmlns="http://www.w3.org/2000/svg">
<g id="_&#227;&#131;&#172;&#227;&#130;&#164;&#227;&#131;&#164;&#227;&#131;&#188;_1">
<path id="Vector" d="M137.015 67.4493C137.015 67.4493 137.049 67.4275 137.066 67.4166L137.015 67.3894V67.4493Z" fill="var(--fill-0, #00B1B2)"/>
<g id="Group 56">
<path id="Vector_2" d="M117.111 56.3459C104.751 53.5101 93.1273 55.2502 81.9768 60.5996C89.7388 62.2378 113.847 59.2354 117.111 56.3459Z" fill="var(--fill-0, #EA5414)"/>
<path id="Vector_3" d="M79.0555 59.4834C88.7313 54.8053 98.9305 52.2112 109.873 53.2424C113.306 53.5647 116.712 54.236 120.083 54.9504C121.44 55.235 122.582 55.2082 123.832 54.6764C126.382 53.5915 128.842 52.367 131.178 50.9383L127.789 49.4882L107.937 46.1528L90.2117 47.9521L73.3874 54.4133L68.3553 57.4639L68.1696 57.5176C70.3028 58.3662 72.453 59.1934 74.6201 59.9614C76.123 60.4985 77.5358 60.2192 79.0611 59.4834H79.0555Z" fill="var(--fill-0, #EA5414)"/>
<path id="Vector_4" d="M149.049 61.0187L143.032 55.5941L134.791 55.1L134.037 54.5307L133.772 53.3276L132.889 52.1997C127.395 55.7123 121.338 58.054 114.916 59.6223C104.283 62.2164 93.5213 63.6451 82.5171 63.0059C76.6689 62.6676 71.0289 61.5719 65.7998 58.9241C65.5071 58.7737 65.2257 58.6179 64.9499 58.4568L58.1504 60.444L54.9589 63.9082L54.1371 67.5121L55.4824 71.6584L58.9215 74.6124L68.6085 78.0122C68.6085 78.0122 70.3478 78.2485 70.5336 78.5171C70.815 78.9199 71.164 79.9135 71.4961 81.1596L72.0927 82.8997L74.5806 85.5315L82.1569 88.0826L98.3057 90L128.403 85.5852L130.755 84.5701L135.326 81.3046L135.99 80.0263V76.8038L136.119 76.6426C136.119 76.1378 137.268 75.214 137.268 75.214L144.506 72.6682L148.959 68.5863L150 65.8149L149.049 61.0241V61.0187ZM63.5539 69.6712C62.552 68.785 61.8428 67.7538 62.2199 66.395C62.5914 65.0308 63.8072 64.499 65.085 64.1661C65.5578 64.0425 66.0869 64.1446 66.7848 64.1446C67.3871 66.497 67.9781 68.785 68.6142 71.2503C66.5372 71.4705 64.9386 70.8904 63.5483 69.6712H63.5539ZM138.821 67.9418C137.915 68.3607 136.902 68.5541 135.647 68.9408C135.461 66.0727 135.292 63.441 135.112 60.6911C137.662 60.5729 139.39 61.5988 140.763 63.1026C141.99 64.4507 140.96 66.9589 138.827 67.9472L138.821 67.9418Z" fill="var(--fill-0, #EA5414)"/>
</g>
<path id="Vector_5" d="M67.6124 15.4573L66.3628 18.6315L67.5955 21.2578L70.6969 24.2279L77.3557 28.052L131.6 43.7511L134.696 43.5255L137.769 39.492L137.031 37.1396L130.44 31.0275L113.47 23.5351C113.47 23.5351 110.312 25.5545 108.201 25.952C104.869 26.575 101.813 25.619 99.122 23.8573C97.7486 22.955 96.4708 21.6821 95.6322 20.3125C94.6246 18.6583 92.8797 16.1018 92.8797 16.1018L81.5322 13.6741L70.6688 13.7708L67.6011 15.4573H67.6124Z" fill="var(--fill-0, black)"/>
<path id="Vector_6" d="M97.9455 20.5867C100.298 23.3419 103.501 24.5128 107.126 24.3194C109.501 24.1959 111.156 22.9767 111.809 21.2043L111.764 21.1452L112.265 16.5316L108.336 13.148L102.662 12.1329L97.6134 14.1899C96.0767 16.1557 96.1499 18.4759 97.9567 20.5867H97.9455Z" fill="var(--fill-0, #EA5414)"/>
<path id="Vector_7" d="M7.49184 15.8927L1.02443 11.3865L0 7.02537L4.19903 2.54604L15.4509 0.000239879L47.0787 3.05628L54.6549 10.1888L54.9251 11.6336L51.0526 17.026L42.1704 19.6738L32.4215 19.9531L15.873 18.3794L7.49184 15.8927Z" fill="var(--fill-0, #00B1B2)"/>
<path id="Vector_8" d="M67.297 38.0262L67.7586 38.8909L67.2576 43.7515L66.2782 44.8741L61.8428 46.8398L55.4655 47.3286L38.8945 44.5518L34.4084 42.1081L33.823 36.764L37.9095 33.4018L47.9905 31.377L59.5013 33.0098L67.297 38.0262Z" fill="var(--fill-0, #00B1B2)"/>
</g>
</svg>
