<svg preserveAspectRatio="none" width="100%" height="100%" overflow="visible" style="display: block;" viewBox="0 0 68 35" fill="none" xmlns="http://www.w3.org/2000/svg">
<g id="Group 55">
<path id="Vector" d="M66.9996 16.6553L58.1053 26.7304L44.8296 32.5912L27.9134 34.0738L18.1214 32.5849L6.90459 25.4939L3.78497 22.0682L1.11101 17.9044L0 14.4977L0.539814 12.7438C1.77009 14.2075 3.26399 15.5071 4.83321 16.5543C8.76255 19.1725 13.3196 20.2576 17.9206 20.8317C30.0161 22.3395 42.0678 21.8474 54.0127 19.4374C57.9923 18.6362 61.6454 16.9139 64.9032 14.3778C65.9891 13.5324 66.8804 12.5293 67.5771 11.4253L67.6524 12.5356L66.9934 16.6553H66.9996Z" fill="var(--fill-0, black)"/>
<path id="Vector_2" d="M61.8275 13.4945C60.6286 14.2515 59.2979 14.7941 58.0488 15.4754C56.2097 16.4848 54.54 16.264 52.682 15.2735C45.6394 11.5261 38.0631 10.6366 30.2358 11.4189C23.8585 12.0624 17.5251 12.933 11.6688 15.8476C11.085 16.1378 10.2125 16.283 9.62876 16.0685C6.35222 14.8635 3.34559 13.2295 1.54411 9.99941C1.51273 9.93632 1.48762 9.87955 1.45624 9.81646L2.18436 7.45697L3.35814 6.64945L12.0893 2.73801L33.4684 0L54.6718 1.6529L64.6019 5.41924L66.4096 8.29604C65.6062 10.4095 64.0118 12.1065 61.8338 13.4819L61.8275 13.4945Z" fill="var(--fill-0, black)"/>
<path id="Vector_3" d="M15.7927 17.1344C23.0237 13.368 43.9006 11.9296 50.3219 17.475C44.4154 18.68 38.672 19.0207 32.8972 19.0522C21.4419 19.1216 17.9833 18.7368 15.7927 17.1344Z" fill="var(--fill-0, black)"/>
</g>
</svg>
