<svg preserveAspectRatio="none" width="100%" height="100%" overflow="visible" style="display: block;" viewBox="0 0 67 37" fill="none" xmlns="http://www.w3.org/2000/svg">
<g id="Group 54">
<path id="Vector" d="M64.809 25.9098L53.8997 33.7264L39.6575 36.4518L22.8416 34.0923L13.6334 30.4395L4.28085 21.0016L2.00233 16.964L0.326399 12.3081L0 8.73731L0.916428 7.15381C1.78892 8.85718 2.95642 10.4659 4.24946 11.8349C7.49462 15.2669 11.7001 17.3551 16.05 18.9512C27.4991 23.1402 39.3562 25.3736 51.5334 25.7079C55.5945 25.8215 59.5364 24.9698 63.2712 23.2286C64.5203 22.6482 65.6062 21.8722 66.5352 20.9574L66.3594 22.0551L64.8027 25.9224L64.809 25.9098Z" fill="var(--fill-0, #EA5414)"/>
<path id="Vector_2" d="M60.4717 21.6706C59.1347 22.1375 57.7161 22.3646 56.3477 22.7495C54.3328 23.3172 52.7573 22.7305 51.163 21.3489C45.1309 16.1126 37.9501 13.5386 30.1417 12.5419C23.7832 11.728 17.4184 11.1539 11.0599 12.6806C10.4259 12.8321 9.54088 12.7816 9.0199 12.4346C6.09486 10.523 3.52761 8.25819 2.49192 4.70004C2.47309 4.63695 2.46681 4.56755 2.44798 4.50447L3.68453 2.3721L5.00896 1.84847L14.3866 0L35.8348 2.14498L56.128 8.52947L64.9659 14.4345L66.0832 17.6456C64.8278 19.5257 62.9008 20.819 60.4654 21.6706H60.4717Z" fill="var(--fill-0, #EA5414)"/>
<path id="Vector_3" d="M14.7884 14.8628C22.6722 12.8188 43.342 16.1183 48.3698 22.9633C42.344 22.8056 36.6759 21.8467 31.033 20.5786C19.8538 18.0677 16.571 16.9195 14.7884 14.8628Z" fill="var(--fill-0, #EA5414)"/>
</g>
</svg>
