<svg preserveAspectRatio="none" width="100%" height="100%" overflow="visible" style="display: block;" viewBox="0 0 440 280" fill="none" xmlns="http://www.w3.org/2000/svg">
<g id="Group 64" opacity="0.1">
<path id="Vector" d="M318.446 19.1274C333.932 33.0037 337.605 49.118 342.655 67.6384C356.641 69.9604 368.944 70.7997 382.074 76.367C492.986 123.171 430.705 276.314 312.417 246.855C279.578 282.105 223.999 291.785 182.01 263.445C178 260.731 168.39 250.072 165.146 249.484C158.413 248.225 151.711 250.967 145.284 250.995C141.948 250.995 131.665 250.016 128.573 249.372C122.912 248.197 115.413 243.134 109.843 242.882C103.998 242.602 88.2362 250.296 77.9224 250.855C-2.59908 254.996 -29.5008 156.183 39.4214 124.682C51.2043 119.283 62.069 118.863 74.1274 115.842C89.5828 69.4568 138.153 43.1871 190.548 54.2657C193.976 52.8948 197.649 40.2775 199.913 36.3608C223.02 -3.47743 283.098 -12.5977 318.477 19.0995L318.446 19.1274Z" fill="var(--fill-0, #00B1B2)"/>
</g>
</svg>
