<svg preserveAspectRatio="none" width="100%" height="100%" overflow="visible" style="display: block;" viewBox="0 0 30 140" fill="none" xmlns="http://www.w3.org/2000/svg">
<g id="_&#227;&#131;&#172;&#227;&#130;&#164;&#227;&#131;&#164;&#227;&#131;&#188;_1">
<path id="Vector" d="M9.74098 48.7245L3.33259 40.013L1.04021 33.8722L-2.86172e-05 26.472L0.250399 18.7018L2.1254 9.67224L9.88225 5.90015e-05L19.4627 0.324629L24.9079 6.16689L29.3193 18.189L30 22.6096L28.6387 37.1244L21.0873 47.0302L20.1113 56.2286C18.2363 56.3454 16.3677 56.4558 14.4927 56.5726C13.1507 56.657 11.8086 56.7544 10.473 56.8452L10.5436 53.4502L9.75382 48.731L9.74098 48.7245Z" fill="var(--fill-0, black)"/>
<path id="Vector_2" d="M25.4152 131.224L23.3797 137.462L14.9422 140L9.2016 135.209L8.91264 134.054L10.4088 59.1367C13.6644 58.903 16.9199 58.6693 20.1755 58.4421L25.4088 131.224H25.4152Z" fill="var(--fill-0, #00B1B2)"/>
</g>
</svg>
