<svg preserveAspectRatio="none" width="100%" height="100%" overflow="visible" style="display: block;" viewBox="0 0 440 280" fill="none" xmlns="http://www.w3.org/2000/svg">
<g id="Group 62">
<path id="Vector" opacity="0.1" d="M374.286 238.203C357.886 253.072 340.121 258.169 317.55 255.442C313.491 254.955 310.698 252.455 307.71 252.131C302.319 251.579 283.223 268.916 274.942 272.811C246.492 286.187 212.912 280.279 189.367 260.215C185.762 257.13 180.955 249.339 177.903 248.819C172.089 247.813 167.121 256.514 161.437 260.02C139.646 273.461 108.306 271.513 87.9436 256.059C79.7921 249.891 69.4322 232.813 62.2549 231.417C55.0777 230.021 50.0439 231.028 42.3795 228.56C-1.52837 214.438 -14.259 153.791 18.1847 121.65C30.2983 109.638 44.4904 105.19 60.4038 100.547C63.0993 80.5483 68.0032 62.7569 83.7217 49.1862C103.305 32.3039 123.408 31.1676 148.414 34.3492C175.142 -3.01904 230.287 -11.9147 266.335 17.6942C271.174 21.6551 277.183 31.4922 282.314 32.6935C288.062 34.0246 298.454 29.7715 304.592 29.7715C335.12 29.7715 364.641 49.6082 377.664 76.8147C380.262 82.2365 379.483 88.5024 384.062 93.145C388.641 97.7877 401.761 100.547 408.484 104.443C451.775 129.474 449.956 193.984 406.178 217.327C400.527 220.347 392.116 221.58 387.374 224.502C383.607 226.807 378.411 234.437 374.286 238.203Z" fill="var(--fill-0, #EA5414)"/>
</g>
</svg>
