<svg preserveAspectRatio="none" width="100%" height="100%" overflow="visible" style="display: block;" viewBox="0 0 440 280" fill="none" xmlns="http://www.w3.org/2000/svg">
<g id="Group 65" opacity="0.1">
<path id="Vector" d="M251.829 53.4849C287.499 46.632 314.772 63.3998 324.796 93.8152C343.445 94.1359 355.162 91.5406 371.923 101.164C385.787 109.125 391.58 118.282 395.746 132.308C397.113 136.974 395.421 141.669 398.285 146.072C400.172 148.959 416.055 156.687 420.709 160.974C466.175 202.471 425.102 272.546 361.638 264.935C354.673 264.089 343.575 257.936 337.88 258.373C330.329 258.927 323.56 267.209 316.302 269.746C305.79 273.42 290.005 273.158 279.298 270.213C271.031 267.938 263.285 259.51 255.832 260.677C251.373 261.377 248.737 266.422 245.06 268.609C221.562 282.548 192.563 284.239 168.154 270.65C160.994 266.655 148.464 251.87 143.029 250.733C139.221 249.946 130.434 251.229 124.348 250.091C119.628 249.217 110.711 244.755 107.652 244.755C103.844 244.755 90.5976 251.958 84.6743 253.241C24.9204 266.159 -22.336 205.795 11.0885 159.574C15.1567 153.946 32.7639 141.64 33.3172 140.094C35.1072 134.991 26.9382 123.093 25.9293 115.191C22.5771 88.8577 41.714 62.6124 72.0466 59.638C79.3368 58.9089 100.329 61.6501 103.583 60.192C106.838 58.734 108.758 43.4242 111.427 38.0585C117.838 25.0817 133.232 12.134 147.52 6.24336C192.401 -12.2158 239.755 12.2506 251.862 53.4557L251.829 53.4849Z" fill="var(--fill-0, #00B1B2)"/>
</g>
</svg>
