<svg preserveAspectRatio="none" width="100%" height="100%" overflow="visible" style="display: block;" viewBox="0 0 440 280" fill="none" xmlns="http://www.w3.org/2000/svg">
<g id="Group 63">
<path id="Vector" opacity="0.1" d="M369.499 54.7987C379.913 67.2069 387.334 87.9915 389.517 104.605C397.468 110.514 406.292 112.426 414.211 118.786C456.554 152.952 444.674 229.174 393.788 243.146C384.559 245.684 371.432 243.529 364.916 245.718C362.671 246.483 353.753 256.111 349.981 258.613C328.965 272.69 305.456 271.439 285.376 256.18C274.587 260.733 266.481 270.709 255.505 274.949C232.619 283.812 208.236 280.927 187.782 266.955C182.825 263.584 177.618 255.972 172.847 255.624C167.016 255.207 149.961 267.685 139.703 269.249C112.888 273.315 84.7326 262.993 67.6148 239.288C63.2184 233.206 57.3877 217.183 52.8355 214.055C48.0961 210.753 42.016 211.344 36.8713 209.258C-7.71605 191.115 -13.1102 120.003 27.5173 93.8307C32.7556 90.4593 43.7309 87.6787 47.2542 84.5506C50.7776 81.4225 55.5481 68.4929 59.165 63.0708C74.1937 40.305 101.788 25.2205 127.449 28.3486C134.184 29.1828 151.208 36.8988 155.449 36.447C159.284 35.9952 171.475 19.3814 176.807 15.2453C202.655 -4.77471 241.131 -5.64363 266.356 16.0099C270.347 19.4161 278.89 31.9286 282.289 33.0756C288.556 35.161 299.75 28.9395 306.89 28.2096C327.625 26.0894 355.25 37.9416 369.468 54.8682L369.499 54.7987Z" fill="var(--fill-0, #EA5414)"/>
</g>
</svg>
