<svg preserveAspectRatio="none" width="100%" height="100%" overflow="visible" style="display: block;" viewBox="0 0 30 140" fill="none" xmlns="http://www.w3.org/2000/svg">
<g id="_&#227;&#131;&#172;&#227;&#130;&#164;&#227;&#131;&#164;&#227;&#131;&#188;_1">
<path id="Vector" d="M23.1057 124.3H23.086L23.4012 131.597L20.348 138.913L18.5686 140L10.9324 136.773L8.99543 128.35V58.7751C12.6002 58.4853 16.1983 58.1956 19.803 57.9124L23.1057 124.3Z" fill="var(--fill-0, #EA5414)"/>
<path id="Vector_2" d="M8.9954 54.376L8.34537 50.8133L1.17531 39.7037L0 34.0797L4.72751 4.5242L8.06303 0L10.2561 1.08001C9.23835 7.29667 8.47669 13.5463 8.53579 19.8749C8.54235 20.6783 8.51609 21.5344 8.77216 22.272C8.92318 22.7132 9.59291 23.24 10.0328 23.2335C10.4924 23.2335 11.0834 22.733 11.3592 22.2852C11.5955 21.9098 11.4511 21.3039 11.5036 20.8034C12.1011 14.1785 12.6592 7.54692 13.329 0.928548L14.2154 0.0329272L17.5312 2.57491L18.0105 19.6905C17.9908 19.9341 17.9842 20.1778 17.9645 20.4215C17.9317 20.8166 17.8332 21.3171 18.0236 21.6069C18.3191 22.0744 18.7984 22.6671 19.258 22.7198C19.6914 22.7725 20.3874 22.2983 20.6238 21.8703C20.9521 21.2842 21.0374 20.5203 21.0834 19.8288C21.4642 13.5331 21.3657 7.24399 20.5712 1.00099L21.4117 0.223905L24.7406 2.90418L30 34.8502L23.8411 45.2749L22.2718 46.1903L21.195 47.2374L19.6192 54.1653L19.6914 55.647C16.1261 55.9104 12.5607 56.187 8.9954 56.4636V54.3826V54.376Z" fill="var(--fill-0, black)"/>
</g>
</svg>
