<svg preserveAspectRatio="none" width="100%" height="100%" overflow="visible" style="display: block;" viewBox="0 0 120 129" fill="none" xmlns="http://www.w3.org/2000/svg">
<g id="logo">
<path id="Vector" d="M2.63308 114.247H4.63226L8.38684 123.243L12.3121 114.247H14.3113L16.6883 128.399H13.8846L12.6168 119.683L8.81349 128.399H7.87485L4.24218 119.683L2.80374 128.399H0L2.63308 114.247Z" fill="var(--fill-0, #3C3C3C)"/>
<path id="Vector_2" d="M28.0862 125.425H22.3812L21.1256 128.399H18.139L24.2341 114.247H26.4039L32.3283 128.399H29.3539L28.0983 125.425H28.0862ZM27.2816 123.182L25.2702 118.086L23.2588 123.182H27.2938H27.2816Z" fill="var(--fill-0, #3C3C3C)"/>
<path id="Vector_3" d="M38.265 114.246C40.2154 114.246 41.215 114.758 41.8733 115.307C42.9582 116.221 43.2751 117.428 43.2751 118.488C43.2751 119.866 42.7266 121.073 41.6173 121.816C41.2516 122.072 40.7518 122.304 40.0691 122.426L44.482 128.387H41.0443L37.2654 122.706H36.9241V128.387H34.1691V114.234H38.265V114.246ZM36.9241 120.756H37.7042C38.2284 120.756 40.4226 120.695 40.4226 118.61C40.4226 116.526 38.2528 116.489 37.753 116.489H36.9241V120.756Z" fill="var(--fill-0, #3C3C3C)"/>
<path id="Vector_4" d="M49.4921 120.232L54.6851 114.247H58.1715L52.1861 120.78L58.4885 128.399H54.8436L49.8091 122.06L49.4921 122.377V128.399H46.7371V114.247H49.4921V120.232Z" fill="var(--fill-0, #3C3C3C)"/>
<path id="Vector_5" d="M68.399 116.624H63.3035V119.781H68.1796V122.158H63.3035V126.022H68.399V128.399H60.5485V114.247H68.399V116.624Z" fill="var(--fill-0, #3C3C3C)"/>
<path id="Vector_6" d="M77.1515 116.624V128.399H74.3966V116.624H71.2149V114.247H80.3332V116.624H77.1515Z" fill="var(--fill-0, #3C3C3C)"/>
<path id="Vector_7" d="M86.1845 114.247V128.399H83.4295V114.247H86.1845Z" fill="var(--fill-0, #3C3C3C)"/>
<path id="Vector_8" d="M89.8903 128.399V114.247H91.8041L100.423 123.694V114.247H103.178V128.399H101.264L92.6453 118.94V128.399H89.8903Z" fill="var(--fill-0, #3C3C3C)"/>
<path id="Vector_9" d="M113.503 120.817H120V120.987C120 121.938 119.878 124.913 117.915 126.839C116.453 128.301 114.649 128.704 112.893 128.704C111.138 128.704 109.309 128.338 107.761 126.79C107.273 126.302 105.664 124.522 105.664 121.341C105.664 118.598 106.896 116.928 107.749 116.075C108.809 114.99 110.589 113.905 113.332 113.905C114.393 113.905 115.514 114.076 116.599 114.648C117.513 115.112 118.513 115.965 119.256 117.233L116.855 118.525C116.367 117.574 115.648 117.086 115.197 116.843C114.6 116.55 113.856 116.392 113.198 116.392C112.076 116.392 110.796 116.794 109.931 117.647C109.126 118.427 108.505 119.793 108.505 121.377C108.505 123.267 109.309 124.388 109.907 124.961C110.54 125.571 111.54 126.168 113.052 126.168C113.99 126.168 115.051 125.912 115.831 125.315C116.38 124.888 116.94 124.169 117.172 123.145H113.527V120.768L113.503 120.817Z" fill="var(--fill-0, #3C3C3C)"/>
<path id="Vector_10" d="M8.77692 71.7389C13.4701 71.7389 17.5538 72.2387 21.2962 75.0181C25.3799 78.09 27.757 82.9905 27.757 88.5858C27.757 94.181 25.4409 99.0327 20.9915 102.153C17.054 104.933 13.3726 105.384 8.6794 105.384H0V71.7268H8.77692V71.7389ZM6.55831 99.7398H8.58188C10.2519 99.7398 13.8846 99.6422 16.8102 97.5211C19.4799 95.6073 21.0037 92.1697 21.0037 88.5858C21.0037 85.0018 19.5408 81.6252 16.8712 79.6016C14.1528 77.578 10.8127 77.383 8.59407 77.383H6.5705V99.7398H6.55831Z" fill="var(--fill-0, #3C3C3C)"/>
<path id="Vector_11" d="M52.4543 98.3257H38.8866L35.9122 105.384H28.7932L43.2751 71.7268H48.4193L62.499 105.384H55.4409L52.4665 98.3257H52.4543ZM50.5404 92.9742L45.7497 80.8694L40.959 92.9742H50.5404Z" fill="var(--fill-0, #3C3C3C)"/>
<path id="Vector_12" d="M77.6635 77.5901V105.591H71.1052V77.5901H63.5351V71.9339H85.2336V77.5901H77.6635Z" fill="var(--fill-0, #3C3C3C)"/>
<path id="Vector_13" d="M109.955 98.5328H96.3876L93.4132 105.591H86.2942L100.776 71.9339H105.92L120 105.591H112.942L109.967 98.5328H109.955ZM108.029 93.1814L103.239 81.0765L98.4478 93.1814H108.029Z" fill="var(--fill-0, #3C3C3C)"/>
<path id="Vector_14" d="M42.5437 0V12.1292H27.3547V60.7314H15.1889V12.1292H0V0H42.5437Z" fill="url(#paint0_linear_0_17)"/>
<path id="Vector_15" d="M62.9622 60.7436L35.6806 0H48.5169L62.9135 31.987L77.3101 0H90.317L62.9622 60.7436Z" fill="url(#paint1_linear_0_17)"/>
<path id="Vector_16" d="M89.2442 56.2332C83.1613 60.2804 79.4433 55.8919 79.9919 51.9545C86.6599 55.063 95.3393 50.8086 95.3393 43.5189C95.3393 37.6676 91.0849 32.3649 83.3685 33.5351C76.4567 34.5835 73.2141 42.7265 73.2141 51.3571C73.2141 57.6595 77.0662 63.0475 83.9049 63.3279C90.3535 63.5961 96.5217 59.7927 95.9 56.3795C95.5587 54.5144 93.0354 53.6977 89.2442 56.2332ZM83.7221 47.5538C82.2836 47.5538 80.6989 46.2982 80.6989 44.5185C80.6989 42.0804 82.0398 39.0329 85.063 39.0329C87.0987 39.0329 88.3665 40.9346 88.3665 43.592C88.3665 46.2495 86.8549 47.5538 83.7221 47.5538Z" fill="var(--fill-0, #3C3C3C)"/>
<path id="Vector_17" d="M110.589 35.851C108.115 35.9973 105.835 37.1798 105.067 38.8132C105.225 36.8019 105.457 32.8279 102.471 32.9985C99.8984 33.1448 98.4112 34.2907 98.5087 36.8994C98.7159 42.3606 99.0938 47.5292 99.2157 55.4894C99.2401 57.2935 98.9354 59.0489 98.8866 59.7072C98.7403 61.8648 100.252 63.0351 102.787 63.0351C105.03 63.0351 106.615 61.8161 106.225 59.6828C105.542 55.8673 105.177 52.3687 105.75 48.09C106.31 43.8722 107.785 42.0802 109.626 41.7145C111.918 41.2635 114.076 42.2996 115.148 43.9087C115.977 45.1521 117.733 45.8592 119.159 44.3354C120.536 42.8604 119.878 41.3244 119.208 40.2883C117.464 37.643 114.539 35.6072 110.565 35.8388L110.589 35.851Z" fill="var(--fill-0, #3C3C3C)"/>
</g>
<defs>
<linearGradient id="paint0_linear_0_17" x1="4.18123" y1="-7.63105" x2="47.7489" y2="59.4514" gradientUnits="userSpaceOnUse">
<stop stop-color="#00FFFF"/>
<stop offset="0.43" stop-color="#00B4DC"/>
<stop offset="0.51" stop-color="#009FD2"/>
<stop offset="0.68" stop-color="#0079C2"/>
<stop offset="0.82" stop-color="#0062B7"/>
<stop offset="0.9" stop-color="#005AB4"/>
</linearGradient>
<linearGradient id="paint1_linear_0_17" x1="50.8574" y1="-9.32548" x2="94.4129" y2="57.7448" gradientUnits="userSpaceOnUse">
<stop stop-color="#00FFFF"/>
<stop offset="0.43" stop-color="#00B4DC"/>
<stop offset="0.51" stop-color="#009FD2"/>
<stop offset="0.68" stop-color="#0079C2"/>
<stop offset="0.82" stop-color="#0062B7"/>
<stop offset="0.9" stop-color="#005AB4"/>
</linearGradient>
</defs>
</svg>
