<svg preserveAspectRatio="none" width="100%" height="100%" overflow="visible" style="display: block;" viewBox="0 0 320 240" fill="none" xmlns="http://www.w3.org/2000/svg">
<g id="_&#227;&#130;&#181;&#227;&#131;&#179;&#227;&#131;&#151;&#227;&#131;&#171;&#227;&#131;&#134;&#227;&#130;&#173;&#227;&#130;&#185;&#227;&#131;&#136;">
<path id="Vector" d="M46.5355 29.4019L51.1854 30.6102L53.8215 35.8825L57.0801 44.0106L57.8856 58.9123L50.1602 68.9809L43.6797 70.4089L36.5767 67.4432C36.5767 67.4432 31.0847 59.2052 30.682 58.9123C30.2792 58.6194 28.4486 47.8917 29.071 46.4637C29.6934 45.0358 34.563 36.0289 35.5515 34.5644C36.5401 33.0999 40.2014 29.4385 40.2014 29.4385H46.4989L46.5355 29.4019Z" fill="var(--fill-0, #F2D1AA)"/>
<path id="Vector_2" d="M83.9908 240H15.8902L4.90618 198.627V173.657L0 135.908L5.49199 114.599L20.4302 87.8349L36.9794 77.4734L64.2563 77.8761L85.1991 82.526L96.1464 135.908L94.9016 193.757L93.6933 226.636L83.9908 240Z" fill="var(--fill-0, #00B1B2)"/>
<path id="Vector_3" d="M85.1991 82.5262L124.449 76.2287L137.3 51.295L146.966 19.6611H152.458V49.2446C152.458 49.2446 149.199 69.7115 148.613 71.5788C148.027 73.4461 135.213 96.3294 135.213 96.3294L124.485 103.139L102.151 106.032L73.7392 104.824" fill="var(--fill-0, #00B1B2)"/>
<path id="Vector_4" d="M147.149 16.8421L146.49 14.0229L145.172 10.7277L144.842 4.68651L147.954 0.585814L150.627 0L153.483 1.20824L154.837 4.54005V9.51947L153.922 14.5721L152.018 16.6591L147.149 16.8421Z" fill="var(--fill-0, #F2D1AA)"/>
<path id="Vector_5" d="M43.4233 23.1003L37.4187 26.1758L33.135 27.384L27.6796 32.5465L23.7986 37.3062V46.423H29.0709H32.1464L36.5766 43.0179L41.4462 37.1232L45.3272 34.7799L50.1968 39.1369L55.2494 45.1415L59.3135 46.423L62.1693 38.5511L56.0915 31.2284L51.2952 25.0042L43.4233 23.1003Z" fill="var(--fill-0, black)"/>
<path id="Vector_6" d="M265.629 29.4019L260.979 30.6102L255.707 36.1388L255.085 43.974L254.279 58.8757L262.005 68.9443L268.485 70.3722L275.588 67.4066L281.483 58.8757L283.094 46.4271L276.613 34.4912L271.927 29.4019H265.629Z" fill="var(--fill-0, #F2D1AA)"/>
<path id="Vector_7" d="M228.211 240H296.311L303.634 191.304L307.295 166.334L304.842 135.908L303.011 114.599L288.073 87.8349L275.185 77.4734L247.908 77.8761L226.966 82.526L219.68 135.908L217.263 193.757L222.133 226.636L228.211 240Z" fill="var(--fill-0, #EA5414)"/>
<path id="Vector_8" d="M226.966 82.5262L198.7 83.5513L174.865 51.295L168.86 19.6611H163.368L159.707 49.2446C159.707 49.2446 162.966 69.7115 163.588 71.5788C164.21 73.4461 176.988 96.3294 176.988 96.3294L195.039 103.139L206.389 106.032L238.462 104.824" fill="var(--fill-0, #EA5414)"/>
<path id="Vector_9" d="M168.714 17.6454L169.19 15.2289L170.764 12.0436L171.57 6.03899L168.75 1.71861L166.151 0.949731L163.185 1.93829L161.611 5.16026L161.245 10.1397L161.757 15.2289L163.478 17.4623L168.714 17.6454Z" fill="var(--fill-0, #F2D1AA)"/>
<path id="Vector_10" d="M279.982 46.6426L274.197 43.4939L268.302 42.1758L262.224 41.3703L253.181 42.3955L254.279 33.4252L257.318 27.3474L264.018 23.1003H273.757L280.128 25.5167L289.867 32.1804L294.444 41.6266L302.059 53.1964L307.844 70.3681L313.922 78.7892L320 81.2056L316.961 83.3292H307.515L296.275 78.7892L287.158 68.1347L281.483 58.8715L279.982 46.6426Z" fill="var(--fill-0, black)"/>
</g>
</svg>
