<svg preserveAspectRatio="none" width="100%" height="100%" overflow="visible" style="display: block;" viewBox="0 0 60 70" fill="none" xmlns="http://www.w3.org/2000/svg">
<g id="_&#227;&#131;&#172;&#227;&#130;&#164;&#227;&#131;&#164;&#227;&#131;&#188;_1">
<path id="Vector" d="M43.4231 57.6125L34.8918 48.3109L36.6485 44.4001L42.4233 41.9065L46.3105 35.1164L47.3851 27.3575L47.1328 27.3306L47.1141 24.4334L44.124 21.8322L38.2837 23.1687L31.2942 27.7074L27.2948 33.5646L25.9492 33.744L23.5384 28.4788L23.7813 26.5234L24.9587 24.8101L27.6405 17.6074L27.4817 13.0597L24.6036 7.22043L15.2219 -0.000221171L9.03597 0.995422L7.59694 3.03156L5.15807 11.795L12.1476 24.2092L19.0998 30.9185L20.2025 33.161L19.2774 34.1387L17.5954 33.8247L5.77479 37.2512L1.44836 41.2876L-8.04939e-06 43.3147L0.280322 44.7948L7.39136 48.5262L13.6988 49.8447L22.4731 48.876L26.7996 47.0372L29.4814 47.7637L32.023 51.1005L33.5649 54.0515L32.8267 55.0023L30.7055 54.6705L21.5574 55.693L13.1288 62.6805L14.3155 67.4703L27.3228 69.9998L28.1732 69.937L42.6289 64.2322L44.9649 63.9272L49.0578 66.2235L58.0564 68.7978L60 66.8424L58.9815 65.201L43.4231 57.6125Z" fill="var(--fill-0, #C8C8C8)"/>
</g>
</svg>
