<svg preserveAspectRatio="none" width="100%" height="100%" overflow="visible" style="display: block;" viewBox="0 0 734 494" fill="none" xmlns="http://www.w3.org/2000/svg">
<g id="contents">
<path id="Vector" fill-rule="evenodd" clip-rule="evenodd" d="M237.369 486.988C199.053 486.988 163.02 473.232 135.187 448.121C100.982 443.605 69.5307 427.713 46.0141 402.95C20.8503 376.458 7 342.049 7 306.073C7 245.578 46.7595 191.573 104.938 171.222C105.611 167.867 106.345 164.094 106.922 161.064C109.422 148.131 110.156 144.567 110.925 142.246C115.446 128.605 121.566 115.417 129.116 103.042C143.555 79.3709 163.489 58.4862 186.765 42.6398C214.49 23.7635 250.619 11.8642 291.256 8.20734C300.201 7.40632 309.314 7 318.355 7C378.169 7 432.067 24.1001 470.131 55.166C482.214 65.0337 492.265 76.0972 500.008 88.0429C501.583 90.4808 503.879 93.9287 506.08 97.214C512.848 96.0183 520.471 94.8226 524.703 94.5904C528.057 94.4163 531.472 94.3234 534.85 94.3234C549.241 94.3234 563.813 95.9487 578.156 99.1411C583.134 100.244 588.135 101.556 593.017 103.042C637.934 116.636 675.674 144.3 699.298 180.95C717.537 209.23 727.107 242.269 726.999 276.516C726.891 308.952 718.222 341.086 701.919 369.435C686.951 395.451 665.995 417.23 641.3 432.414C614.213 449.073 583.843 457.513 551.021 457.513C541.884 457.513 532.746 456.828 523.753 455.47C494.369 474.369 460.297 484.318 424.721 484.318C389.146 484.318 357.165 474.985 328.442 457.211C302.377 476.505 270.552 487 237.369 487V486.988Z" stroke="var(--stroke-0, #00B1B2)" stroke-width="14" stroke-miterlimit="10"/>
<g id="Vector_2" filter="url(#filter0_d_0_15)">
<path fill-rule="evenodd" clip-rule="evenodd" d="M574.093 116.114C558.258 112.584 541.919 111.122 525.689 111.981C518.992 112.341 497.579 116.532 497.579 116.532C497.579 116.532 488.851 103.692 484.703 97.2837C477.645 86.3828 468.628 76.7589 458.481 68.47C413.961 32.1452 349.699 20.4549 292.927 25.5629C259.263 28.5929 225.046 37.9033 197.153 56.8842C175.873 71.3723 157.862 90.2254 144.649 111.888C137.784 123.137 132.218 135.129 128.094 147.574C126.904 151.173 121.073 184.549 120.219 184.781C65.2987 199.629 25.0222 248.318 25.0222 306.096C25.0222 371.722 76.9848 425.611 143.351 431.52C167.276 455.017 200.555 469.586 237.369 469.586C272.175 469.586 303.831 456.549 327.396 435.27C354.436 455.122 388.16 466.905 424.733 466.905C461.306 466.905 492.975 455.818 519.581 437.058C529.74 439.055 540.26 440.099 551.021 440.099C680.074 440.099 749.313 291.492 683.981 190.156C662.16 156.304 626.825 131.53 587.606 119.666C583.146 118.319 578.637 117.135 574.093 116.114Z" fill="var(--fill-0, white)"/>
</g>
</g>
<defs>
<filter id="filter0_d_0_15" x="15.0222" y="14.4242" width="703.942" height="465.162" filterUnits="userSpaceOnUse" color-interpolation-filters="sRGB">
<feFlood flood-opacity="0" result="BackgroundImageFix"/>
<feColorMatrix in="SourceAlpha" type="matrix" values="0 0 0 0 0 0 0 0 0 0 0 0 0 0 0 0 0 0 127 0" result="hardAlpha"/>
<feOffset/>
<feGaussianBlur stdDeviation="5"/>
<feComposite in2="hardAlpha" operator="out"/>
<feColorMatrix type="matrix" values="0 0 0 0 0 0 0 0 0 0 0 0 0 0 0 0 0 0 0.2 0"/>
<feBlend mode="normal" in2="BackgroundImageFix" result="effect1_dropShadow_0_15"/>
<feBlend mode="normal" in="SourceGraphic" in2="effect1_dropShadow_0_15" result="shape"/>
</filter>
</defs>
</svg>
