<svg preserveAspectRatio="none" width="100%" height="100%" overflow="visible" style="display: block;" viewBox="0 0 308 208" fill="none" xmlns="http://www.w3.org/2000/svg">
<g id="contents">
<path id="Vector" fill-rule="evenodd" clip-rule="evenodd" d="M99.9873 203.995C84.0219 203.995 69.0084 198.263 57.4114 187.801C43.1594 185.919 30.0545 179.297 20.2559 168.979C9.77096 157.941 4 143.604 4 128.614C4 103.407 20.5665 80.9052 44.8075 72.4258C45.088 71.0278 45.3936 69.4558 45.6341 68.1933C46.676 62.8047 46.9816 61.3198 47.3022 60.3523C49.1858 54.6687 51.7356 49.1738 54.8816 44.0174C60.898 34.1545 69.2038 25.4526 78.9022 18.8499C90.4542 10.9848 105.508 6.02675 122.44 4.50306C126.167 4.1693 129.964 4 133.731 4C158.654 4 181.111 11.1251 196.971 24.0692C202.006 28.1807 206.194 32.7905 209.42 37.7679C210.076 38.7837 211.033 40.2203 211.95 41.5892C214.77 41.091 217.946 40.5927 219.71 40.496C221.107 40.4234 222.53 40.3847 223.938 40.3847C229.934 40.3847 236.006 41.0619 241.982 42.3921C244.056 42.8517 246.14 43.3983 248.174 44.0174C266.889 49.6817 282.614 61.2085 292.458 76.4793C300.057 88.2625 304.045 102.029 304 116.298C303.955 129.813 300.343 143.202 293.55 155.015C287.313 165.855 278.581 174.929 268.292 181.256C257.005 188.197 244.351 191.714 230.675 191.714C226.868 191.714 223.061 191.428 219.314 190.862C207.071 198.737 192.874 202.883 178.05 202.883C163.227 202.883 149.902 198.994 137.934 191.588C127.074 199.627 113.814 204 99.9873 204V203.995Z" stroke="var(--stroke-0, #00B1B2)" stroke-width="8" stroke-miterlimit="10"/>
<g id="Vector_2" filter="url(#filter0_d_0_4)">
<path fill-rule="evenodd" clip-rule="evenodd" d="M240.291 49.4639C233.693 47.9934 226.886 47.3839 220.123 47.7419C217.332 47.8918 208.41 49.638 208.41 49.638C208.41 49.638 204.774 44.2882 203.045 41.6181C200.105 37.076 196.348 33.0661 192.12 29.6124C173.569 14.4771 146.793 9.6061 123.139 11.7344C109.112 12.9969 94.8549 16.8763 83.2328 24.785C74.366 30.8217 66.8618 38.6771 61.3563 47.7032C58.4959 52.3903 56.1765 57.3871 54.4582 62.5724C53.9623 64.0719 51.5327 77.9786 51.177 78.0754C28.2936 84.262 11.5117 104.549 11.5117 128.623C11.5117 155.967 33.1628 178.421 60.8153 180.883C70.7842 190.674 84.6505 196.744 99.9896 196.744C114.492 196.744 127.682 191.312 137.501 182.446C148.767 190.717 162.819 195.627 178.058 195.627C193.297 195.627 206.492 191.007 217.578 183.191C221.811 184.023 226.194 184.458 230.678 184.458C284.45 184.458 313.3 122.538 286.078 80.315C276.986 66.2099 262.263 55.8876 245.922 50.944C244.063 50.3829 242.185 49.8895 240.291 49.4639Z" fill="var(--fill-0, white)"/>
</g>
</g>
<defs>
<filter id="filter0_d_0_4" x="1.51169" y="1.25995" width="304.976" height="205.484" filterUnits="userSpaceOnUse" color-interpolation-filters="sRGB">
<feFlood flood-opacity="0" result="BackgroundImageFix"/>
<feColorMatrix in="SourceAlpha" type="matrix" values="0 0 0 0 0 0 0 0 0 0 0 0 0 0 0 0 0 0 127 0" result="hardAlpha"/>
<feOffset/>
<feGaussianBlur stdDeviation="5"/>
<feComposite in2="hardAlpha" operator="out"/>
<feColorMatrix type="matrix" values="0 0 0 0 0 0 0 0 0 0 0 0 0 0 0 0 0 0 0.2 0"/>
<feBlend mode="normal" in2="BackgroundImageFix" result="effect1_dropShadow_0_4"/>
<feBlend mode="normal" in="SourceGraphic" in2="effect1_dropShadow_0_4" result="shape"/>
</filter>
</defs>
</svg>
