<svg preserveAspectRatio="none" width="100%" height="100%" overflow="visible" style="display: block;" viewBox="0 0 168 169" fill="none" xmlns="http://www.w3.org/2000/svg">
<g id="Group 160">
<path id="Vector" d="M54.4363 108.974C75.1269 99.9969 95.9871 105.651 117.177 112.066C104.142 117.44 61.0736 113.277 54.4363 108.974Z" fill="var(--fill-0, #EA5414)"/>
<path id="Vector_2" d="M121.918 109.114C103.523 103.47 84.8783 95.8237 66.0941 101.058C60.2053 102.699 54.4663 104.971 48.7971 107.303C46.5214 108.243 44.5152 108.533 42.1597 107.943C37.3588 106.732 32.6678 105.231 28.1364 103.319L33.596 99.6266L67.222 89.4488L107.585 89.3187L130.212 98.0754L139.973 102.149L140.323 102.189C136.859 104.4 133.376 106.562 129.833 108.644C127.377 110.085 124.822 110.005 121.918 109.124V109.114Z" fill="var(--fill-0, #EA5414)"/>
<path id="Vector_3" d="M0 136.375L2.70485 141.149L11.7875 147.283L25.2419 149.745C25.2419 149.745 27.5375 151.086 27.6972 152.017L27.9767 152.277L29.0048 158.192L30.5718 160.333L39.5946 164.937L44.0261 166.078L98.0033 169L125.601 162.555L138.027 155.56L141.54 149.965L142.029 146.583C142.219 144.201 142.509 142.259 142.868 141.439C143.107 140.888 146.072 139.928 146.072 139.928L161.912 130.731L166.972 124.256L168 116.239L165.415 109.865L158.738 104.48L146.231 102.909C145.792 103.289 145.353 103.66 144.894 104.02C136.61 110.475 127.098 114.208 116.987 116.61C97.9634 121.143 78.7101 115.799 59.307 114.278C47.5794 113.367 36.2609 110.905 25.5413 106.142L24.3536 108.483L24.2738 110.775L23.1459 112.046L8.90304 115.469L0.129753 127.288L0 136.375ZM143.896 127.538C144.225 122.824 144.525 118.441 144.824 113.938C146.042 113.727 146.94 113.377 147.798 113.457C150.144 113.677 152.43 114.278 153.518 116.67C154.606 119.052 153.707 121.163 152.24 123.095C150.204 125.757 147.589 127.308 143.896 127.538ZM15.2809 128.579C17.1972 125.396 19.8821 122.995 24.3836 122.434C24.9525 127.538 25.4914 132.422 26.0803 137.746C23.7647 137.416 21.9282 137.376 20.2115 136.885C16.1692 135.724 13.5642 131.431 15.2809 128.589V128.579Z" fill="var(--fill-0, #EA5414)"/>
<path id="Vector_4" d="M108.903 0.120092L112.905 5.00385L112.406 10.348L108.972 17.3634L98.3427 27.4311L18.5946 87.7775L13.2548 89.1586L5.6792 83.8045L5.50952 79.2309L12.9154 64.6798L36.9197 41.7421C36.9197 41.7421 43.4273 43.5035 47.2101 42.9931C53.1787 42.1824 57.7301 38.7498 61.1935 34.0962C62.9601 31.7144 64.3475 28.7421 64.9263 25.8499C65.625 22.3572 67.0224 16.843 67.0224 16.843L84.6188 6.05466L102.914 0L108.903 0.120092Z" fill="var(--fill-0, black)"/>
<path id="Vector_5" d="M61.2334 27.6313C58.9378 33.836 54.2567 37.739 48.0585 39.4804C43.9962 40.6213 40.4929 39.4203 38.337 36.6582L38.3769 36.5281L34.7738 28.6721L39.3451 20.4557L48.2581 15.4119L57.9696 16.1424C61.7225 18.7244 62.99 22.8576 61.2334 27.6213V27.6313Z" fill="var(--fill-0, #EA5414)"/>
</g>
</svg>
