<svg preserveAspectRatio="none" width="100%" height="100%" overflow="visible" style="display: block;" viewBox="0 0 151 104" fill="none" xmlns="http://www.w3.org/2000/svg">
<g id="Group 159">
<path id="Vector 3" d="M1.49505 84.5933L0 82.6029L19.4356 71.1579L40.8647 47.7703L54.3201 14.9282L86.7129 0.995215L105.65 0L124.089 3.48325L142.528 16.4211L151 35.3301V64.1914L130.069 90.5646L103.657 104L60.7987 99.0239L40.8647 84.5933H1.49505Z" fill="var(--fill-0, #C8C8C8)"/>
<path id="Vector" d="M97.961 68.1096L101.17 66.5013L113.468 45.7263L113.721 36.611L113.476 35.9432L107.168 32.0254L98.3029 33.6138L92.1488 42.3792L87.5539 38.9674L78.0403 38.3985L71.173 43.8547L72.1323 51.672L79.4076 59.2264L97.961 68.1096Z" fill="var(--fill-0, white)"/>
</g>
</svg>
