<svg preserveAspectRatio="none" width="100%" height="100%" overflow="visible" style="display: block;" viewBox="0 0 120 45" fill="none" xmlns="http://www.w3.org/2000/svg">
<g id="Group 194">
<path id="Vector" d="M70.8661 14.9417L58.1114 0L56.2804 0.513725L52.817 7.8698L46.8216 16.7124L44.0907 26.7683L44.2895 28.0143L50.693 39.3381L55.3491 42.9342L59.2519 44.7377L61.6271 45L67.1098 42.3002L74.0992 33.5341L75.878 26.2108L74.8945 22.7897L70.8556 14.9417H70.8661ZM60.79 41.1963C57.4941 36.9881 55.5479 32.4302 56.5943 26.8667C56.6884 26.3529 56.8872 25.8392 57.1174 25.3692C57.8812 23.7625 59.0008 22.4289 60.79 22.3852C62.6315 22.3415 63.6988 23.7515 64.4417 25.3583C66.6913 30.2332 65.1113 37.3707 60.79 41.1963Z" fill="var(--fill-0, #EA5414)"/>
<path id="Vector_2" d="M19.1477 9.21426L16.5005 4.55795L12.8175 4.48145L4.8654 14.9636L0 28.0799V29.3588L2.38562 36.3651L5.44088 39.4912L12.0013 44.1693L19.9429 44.9782L28.4495 37.2614L29.161 21.4015L25.5303 15.5975L19.1477 9.22519V9.21426ZM16.5215 41.4149C14.387 38.42 12.943 35.5016 12.2106 32.2772C11.8548 30.7579 11.7502 29.1183 11.813 27.5553C11.9072 25.1178 13.4034 23.3581 15.381 23.0083C17.1702 22.6913 18.8652 23.828 19.8174 26.1453C20.215 27.1071 20.5707 28.1564 20.6544 29.1839C21.0416 33.7418 19.7232 37.7095 16.511 41.4149H16.5215Z" fill="var(--fill-0, #EA5414)"/>
<path id="Vector_3" d="M94.4697 15.5868L90.8285 21.3908L91.54 37.2506L100.057 44.9674L107.999 44.1586L114.559 39.4804L117.614 36.3544L120 29.3481V28.0692L115.124 14.9529L107.172 4.4707L103.489 4.54722L100.842 9.20352L94.4592 15.5759L94.4697 15.5868ZM99.3351 29.1841C99.4188 28.1457 99.7746 27.1073 100.172 26.1455C101.135 23.8392 102.83 22.6915 104.619 23.0085C106.597 23.3582 108.093 25.1071 108.187 27.5555C108.25 29.1294 108.145 30.7581 107.789 32.2774C107.057 35.5018 105.613 38.4202 103.479 41.4151C100.266 37.7206 98.948 33.7529 99.3351 29.1841Z" fill="var(--fill-0, #EA5414)"/>
</g>
</svg>
