<svg preserveAspectRatio="none" width="100%" height="100%" overflow="visible" style="display: block;" viewBox="0 0 130 60" fill="none" xmlns="http://www.w3.org/2000/svg">
<g id="_&#227;&#131;&#172;&#227;&#130;&#164;&#227;&#131;&#164;&#227;&#131;&#188;_1">
<path id="Vector" d="M106.204 43.5392C107.358 43.2237 108.502 42.8812 109.656 42.5747C112.044 41.9347 113.525 40.5736 114.152 38.0496C114.724 35.769 115.805 33.6147 116.713 31.4242C116.976 30.7842 117.321 30.1082 118.084 30C118.693 30 119.102 30.2614 119.302 30.7121C119.638 31.4693 119.983 32.2355 120.164 33.0378C121.418 38.4282 123.906 43.0074 128.747 46.0722C129.329 46.4417 130.128 46.8203 129.983 47.6496C129.792 48.7313 128.766 48.5871 127.966 48.6953C127.376 48.7764 126.777 48.8034 126.177 48.8575C124.233 49.0288 122.807 49.9392 121.963 51.715C121.354 53.004 120.746 54.293 120.101 55.555C119.51 56.7178 118.956 57.9167 118.221 58.9804C117.222 60.4046 116.322 60.3325 115.632 58.7911C115.105 57.6102 114.633 56.3392 114.488 55.0682C114.115 51.706 112.662 49.2632 109.383 47.9741C108.175 47.4964 107.094 46.6941 105.968 46.0181C105.45 45.7116 104.942 45.342 105.005 44.6479C105.069 43.9448 105.623 43.7015 106.213 43.5302L106.204 43.5392Z" fill="var(--fill-0, #00B1B2)"/>
<path id="Vector_2" d="M23.7957 43.5392C22.6422 43.2237 21.4978 42.8812 20.3443 42.5747C17.9556 41.9347 16.4751 40.5736 15.8484 38.0496C15.2762 35.769 14.1953 33.6147 13.2871 31.4242C13.0237 30.7842 12.6785 30.1082 11.9156 30C11.3071 30 10.8983 30.2614 10.6985 30.7121C10.3625 31.4693 10.0173 32.2355 9.83567 33.0378C8.58227 38.4282 6.09362 43.0074 1.25258 46.0722C0.671288 46.4417 -0.127985 46.8203 0.0173374 47.6496C0.208073 48.7313 1.23441 48.5871 2.03368 48.6953C2.62406 48.7764 3.22351 48.8034 3.82296 48.8575C5.76665 49.0288 7.19262 49.9392 8.03731 51.715C8.64585 53.004 9.25438 54.293 9.89925 55.555C10.4896 56.7178 11.0437 57.9167 11.7794 58.9804C12.7784 60.4046 13.6776 60.3325 14.3679 58.7911C14.8947 57.6102 15.367 56.3392 15.5123 55.0682C15.8847 51.706 17.3379 49.2632 20.6168 47.9741C21.8248 47.4964 22.9056 46.6941 24.0318 46.0181C24.5496 45.7116 25.0582 45.342 24.9946 44.6479C24.931 43.9448 24.377 43.7015 23.7866 43.5302L23.7957 43.5392Z" fill="var(--fill-0, #00B1B2)"/>
<g id="_&#227;&#131;&#172;&#227;&#130;&#164;&#227;&#131;&#164;&#227;&#131;&#188;_1_2">
<path id="Vector_3" d="M40.0658 24.8008C40.6005 22.9507 43.782 23.1189 45.9209 22.6879C55.7596 20.7326 56.1473 21.9205 59.5828 12.2597C59.81 11.5975 59.9838 10.9142 60.2111 10.2414C61.1736 7.43461 62.1227 4.62784 63.1119 1.83158C63.3926 1.04316 63.7535 0.233719 64.9165 0.00244973C65.7587 -0.029087 66.3736 0.244232 66.6276 0.801381C67.1089 1.84209 67.6035 2.88281 67.8708 3.95506C68.7531 7.47666 69.475 11.0298 70.3572 14.5619C71.801 20.4067 72.8437 21.0795 80.3965 21.2057C81.6263 21.2267 82.8695 21.1321 84.086 21.2057C85.4762 21.3003 86.92 21.3844 88.2166 21.7523C90.3822 22.362 90.6362 23.9073 88.6444 24.7798C86.5056 25.7154 84.2197 26.5459 81.8669 27.0189C75.4236 28.3435 72.2956 31.76 71.0791 36.6692C70.13 40.4641 68.9804 44.2275 67.951 48.0014C67.6703 49.0316 67.1222 49.9567 65.7052 49.9987C64.2348 50.0408 63.7268 49.0421 63.3525 48.075C62.1761 45.0369 60.8394 42.0304 59.8769 38.9503C59.1015 36.48 57.3236 34.798 54.7169 33.4524C51.3348 31.7074 47.5919 30.4354 44.4103 28.4381C42.6725 27.3553 39.5043 26.7772 40.0658 24.7798V24.8008Z" fill="var(--fill-0, #00B1B2)"/>
</g>
</g>
</svg>
