<svg preserveAspectRatio="none" width="100%" height="100%" overflow="visible" style="display: block;" viewBox="0 0 90 90" fill="none" xmlns="http://www.w3.org/2000/svg">
<g id="Group 165">
<path id="Vector" d="M19.9171 7.81348L16.9684 11.7887L16.2758 17.6786L14.9955 19.0684C15.2054 19.2142 15.4258 19.3697 15.6566 19.5738C14.8486 20.0015 14.1351 20.3805 13.4635 20.7402L12.7079 21.5663L11.1968 21.9551C11.1968 21.9551 11.1338 21.9842 11.1024 22.0037C7.79684 23.8017 5.17341 26.1733 3.28454 28.9238L0 42.1615C0.0524687 42.6378 0.115431 43.114 0.188887 43.5903C0.45123 45.0676 0.829005 46.4866 1.31172 47.8765L5.6981 55.5353C5.79254 55.6519 5.87649 55.7588 5.98143 55.8755C9.3709 59.6757 13.0017 63.3107 16.748 66.8194C18.1227 68.1023 18.9517 69.2978 19.1196 71.1056C19.5708 75.9264 20.1585 80.7277 20.6936 85.5388L21.5017 86.3552L35.196 89.4459L60.6538 90L70.287 87.4924L72.6796 86.2775L75.7962 81.7969L89.0498 10.2239L87.843 8.69794C65.5229 18.6214 42.8459 17.5619 19.9171 7.8232V7.81348ZM18.2801 55.2243C12.4875 51.3657 9.76966 46.7393 9.58078 40.9563C9.44436 36.4563 12.3721 33.2586 17.3147 32.2964C17.6295 39.7122 17.9338 47.0795 18.2801 55.2243Z" fill="var(--fill-0, #EA5414)"/>
<path id="Vector_2" d="M21.9844 5.0346L23.3591 3.18793L36.5287 0L57.0334 0.806704L57.0649 0.6026L84.9048 4.99572L85.6813 5.96765C78.2937 9.19446 70.4759 11.2841 62.0809 11.9256C47.9459 12.985 34.6398 10.4774 21.9949 5.04432L21.9844 5.0346Z" fill="var(--fill-0, #EA5414)"/>
</g>
</svg>
