<svg preserveAspectRatio="none" width="100%" height="100%" overflow="visible" style="display: block;" viewBox="0 0 109 38" fill="none" xmlns="http://www.w3.org/2000/svg">
<g id="Group 77">
<path id="Vector" d="M65.112 0L67 2.27514L61.3257 24.8463L59.1681 27.7747L57.9232 28L57.2178 27.2792L57 25.7999L60.1432 2.95843L60.973 1.14883L65.112 0Z" fill="var(--fill-0, black)"/>
<path id="Vector_2" d="M36.1001 29.5941L34.742 27.8925L24 5.70078L24.3472 4.51431L26.7263 3L28.9932 3.86644L30.3206 5.60711L38.7958 26.9636L39 28.9462L37.8359 30L36.1001 29.5941Z" fill="var(--fill-0, black)"/>
<path id="Vector_3" d="M74.1123 31L74 28.6883L84.6285 12.013L87.038 9.65499L88.8554 9L92 11.3657L76.7158 30.0753L74.1123 31Z" fill="var(--fill-0, black)"/>
<path id="Vector_4" d="M5.87607 18.9057L16.6575 29.882L18 32.6841L16.8124 34L13.3425 32.3899L0.123923 21.6226L0 18.7354L4.28571 18L5.87607 18.9057Z" fill="var(--fill-0, black)"/>
<path id="Vector_5" d="M91.4337 38L89 37.6479L89.1768 36.382L104.174 26.5843L107.357 26L109 26.8914L108.667 28.6966L91.4337 38Z" fill="var(--fill-0, black)"/>
</g>
</svg>
