<svg preserveAspectRatio="none" width="100%" height="100%" overflow="visible" style="display: block;" viewBox="0 0 90 90" fill="none" xmlns="http://www.w3.org/2000/svg">
<g id="Group 166">
<path id="Vector" d="M1.20678 8.6911L0 10.217L13.2536 81.79L16.3702 86.2706L18.7628 87.4855L28.396 89.9931L53.8538 89.4391L67.5376 86.3484L68.3457 85.532C68.8808 80.7209 69.4685 75.9099 69.9197 71.0988C70.0876 69.291 70.9271 68.0955 72.2913 66.8126C76.0376 63.3136 79.6684 59.6689 83.0579 55.8686C83.1628 55.7617 83.2468 55.6451 83.3412 55.5285L87.7276 47.8696C88.2103 46.4895 88.5881 45.0608 88.8504 43.5834C88.9344 43.1072 88.9868 42.6309 89.0393 42.1547L85.7548 28.917C83.8659 26.1664 81.2425 23.7949 77.9369 21.9968C77.9054 21.9774 77.874 21.9677 77.8425 21.9482L76.3314 21.5595L75.5758 20.7333C74.9042 20.3737 74.1802 19.9947 73.3826 19.567C73.6135 19.3629 73.8339 19.1977 74.0438 19.0616L72.7635 17.6717L72.0709 11.7818L69.1222 7.80664C46.1934 17.5454 23.5269 18.6048 1.19628 8.68138L1.20678 8.6911ZM71.7246 32.2993C76.6567 33.2518 79.5949 36.4592 79.4585 40.9592C79.2801 46.7519 76.5517 51.3686 70.7592 55.2272C71.1055 47.0824 71.4098 39.7151 71.7246 32.2993Z" fill="var(--fill-0, #00B1B2)"/>
<path id="Vector_2" d="M67.0655 5.0346L65.6908 3.18793L52.5212 0L32.0164 0.806704L31.9954 0.6026L4.15556 4.99572L3.37903 5.96765C10.7666 9.19446 18.5844 11.2841 26.9794 11.9256C41.1145 12.985 54.4205 10.4774 67.0655 5.04432V5.0346Z" fill="var(--fill-0, #00B1B2)"/>
</g>
</svg>
