<svg width="200" height="120" viewBox="0 0 200 120" fill="none" xmlns="http://www.w3.org/2000/svg">
<path d="M182.686 89.9322C182.686 89.9322 182.732 89.9032 182.754 89.8887L182.686 89.8524V89.9322Z" fill="#00B1B2"/>
<path d="M156.149 75.1277C139.668 71.3466 124.17 73.6669 109.302 80.7994C119.652 82.9836 151.796 78.9805 156.149 75.1277Z" fill="#EA5414"/>
<path d="M105.408 79.311C118.309 73.0736 131.908 69.6148 146.497 70.9897C151.075 71.4194 155.616 72.3145 160.111 73.267C161.92 73.6465 163.444 73.6107 165.11 72.9018C168.509 71.4552 171.789 69.8224 174.904 67.9176L170.386 65.984L143.916 61.5369L120.283 63.9359L97.8502 72.5509L91.1407 76.6184L90.8931 76.69C93.7375 77.8215 96.6044 78.9243 99.4938 79.9484C101.498 80.6645 103.381 80.2921 105.415 79.311H105.408Z" fill="#EA5414"/>
<path d="M198.732 81.3582L190.709 74.1254L179.722 73.4665L178.716 72.7074L178.363 71.1033L177.185 69.5995C169.86 74.2829 161.785 77.4052 153.222 79.4963C139.045 82.9551 124.695 84.86 110.023 84.0078C102.225 83.5567 94.7053 82.0958 87.7332 78.5653C87.3429 78.3648 86.9677 78.1571 86.5999 77.9423L77.5339 80.5919L73.2786 85.2109L72.1829 90.0161L73.9765 95.5445L78.5621 99.4832L91.4781 104.016C91.4781 104.016 93.7972 104.331 94.0448 104.689C94.4201 105.226 94.8854 106.551 95.3282 108.213L96.1237 110.533L99.4409 114.042L109.543 117.443L131.074 120L171.203 114.114L174.341 112.76L180.435 108.406L181.32 106.702V102.405L181.493 102.19C181.493 101.517 183.024 100.285 183.024 100.285L192.675 96.8908L198.612 91.4483L200 87.7531L198.732 81.3653V81.3582ZM84.7387 92.8949C83.4028 91.7133 82.4572 90.3383 82.96 88.5266C83.4553 86.7076 85.0764 85.9986 86.78 85.5547C87.4104 85.3899 88.1159 85.526 89.0465 85.526C89.8496 88.6626 90.6376 91.7133 91.4856 95.0003C88.7163 95.2939 86.5849 94.5205 84.7312 92.8949H84.7387ZM185.095 90.589C183.887 91.1476 182.536 91.4054 180.862 91.921C180.615 88.0969 180.39 84.5879 180.149 80.9214C183.549 80.7638 185.853 82.1316 187.684 84.1367C189.32 85.9342 187.947 89.2785 185.103 90.5961L185.095 90.589Z" fill="#EA5414"/>
<path d="M90.1493 20.6095L88.4832 24.8418L90.1267 28.3436L94.262 32.3038L103.14 37.4025L175.466 58.3347L179.593 58.034L183.691 52.6559L182.708 49.5193L173.92 41.3698L151.292 31.38C151.292 31.38 147.082 34.0726 144.268 34.6025C139.825 35.4332 135.749 34.1585 132.162 31.8096C130.331 30.6066 128.627 28.9093 127.509 27.0832C126.166 24.8776 123.839 21.4689 123.839 21.4689L108.709 18.232L94.2245 18.3609L90.1342 20.6095H90.1493Z" fill="black"/>
<path d="M130.594 27.4486C133.731 31.1223 138.001 32.6835 142.834 32.4256C146.001 32.2609 148.208 30.6353 149.079 28.2722L149.018 28.1934L149.686 22.0419L144.448 17.5303L136.883 16.1769L130.151 18.9196C128.102 21.5406 128.2 24.6343 130.609 27.4486H130.594Z" fill="#EA5414"/>
<path d="M9.98912 21.19L1.3659 15.1818L0 9.36685L5.59871 3.39441L20.6011 0L62.7716 4.07472L72.8733 13.5848L73.2335 15.5112L68.0701 22.701L56.2272 26.2315L43.2286 26.6039L21.164 24.5056L9.98912 21.19Z" fill="#00B1B2"/>
<path d="M89.7295 50.7014L90.3449 51.8543L89.6769 58.3352L88.3711 59.8319L82.4571 62.4529L73.954 63.1046L51.8594 59.4022L45.8779 56.1439L45.0974 49.0185L50.546 44.5356L63.9874 41.8358L79.3351 44.0128L89.7295 50.7014Z" fill="#00B1B2"/>
</svg>
