<svg preserveAspectRatio="none" width="100%" height="100%" overflow="visible" style="display: block;" viewBox="0 0 110 43" fill="none" xmlns="http://www.w3.org/2000/svg">
<g id="Group 39">
<path id="Vector" d="M65.7647 14.2047L53.0296 6.15155e-05L51.2014 0.488446L47.7434 7.48167L41.7572 15.8881L39.0305 25.4479L39.229 26.6325L45.6226 37.3977L50.2716 40.8164L54.1684 42.531L56.5399 42.7803L62.0142 40.2137L68.9929 31.8801L70.7689 24.918L69.7868 21.6656L65.7542 14.2047H65.7647ZM55.7041 39.1642C52.4132 35.1636 50.4701 30.8305 51.5148 25.5415C51.6088 25.0531 51.8073 24.5647 52.0372 24.1179C52.7998 22.5904 53.9176 21.3227 55.7041 21.2811C57.5428 21.2395 58.6084 22.58 59.3502 24.1075C61.5963 28.7419 60.0188 35.5273 55.7041 39.1642Z" fill="var(--fill-0, #EA5414)"/>
<path id="Vector_2" d="M19.1183 8.75984L16.4751 4.33321L12.7977 4.26048L4.85792 14.2256L0 26.6949V27.9107L2.38195 34.5714L5.43251 37.5433L11.9829 41.9907L19.9122 42.7596L28.4058 35.4235L29.1162 20.3459L25.491 14.8283L19.1183 8.77023V8.75984ZM16.496 39.3721C14.3648 36.5249 12.9231 33.7505 12.1918 30.6851C11.8366 29.2407 11.7321 27.6821 11.7948 26.1962C11.8888 23.8789 13.3828 22.206 15.3573 21.8734C17.1437 21.5721 18.8362 22.6528 19.7869 24.8557C20.1839 25.7701 20.5391 26.7677 20.6227 27.7444C21.0092 32.0775 19.6929 35.8495 16.4856 39.3721H16.496Z" fill="var(--fill-0, #EA5414)"/>
<path id="Vector_3" d="M84.3397 14.8178L80.7041 20.3355L81.4145 35.413L89.9185 42.7492L97.8478 41.9802L104.398 37.5328L107.449 34.561L109.831 27.9003V26.6845L104.962 14.2151L97.0225 4.25004L93.3451 4.32279L90.702 8.7494L84.3293 14.8074L84.3397 14.8178ZM89.1976 27.7444C89.2812 26.7572 89.6364 25.7701 90.0334 24.8556C90.9945 22.6631 92.687 21.5721 94.4734 21.8734C96.4479 22.2059 97.9419 23.8685 98.0359 26.1961C98.0986 27.6924 97.9941 29.2407 97.6389 30.6851C96.9076 33.7505 95.4659 36.5249 93.3347 39.3721C90.1274 35.8599 88.8111 32.0879 89.1976 27.7444Z" fill="var(--fill-0, #EA5414)"/>
</g>
</svg>
