<svg preserveAspectRatio="none" width="100%" height="100%" overflow="visible" style="display: block;" viewBox="0 0 70 70" fill="none" xmlns="http://www.w3.org/2000/svg">
<g id="_&#227;&#131;&#172;&#227;&#130;&#164;&#227;&#131;&#164;&#227;&#131;&#188;_1">
<path id="Vector" d="M39.9683 22.617C39.5435 20.9293 36.995 21.0765 35.2767 20.687C27.409 18.9041 27.0904 19.9946 24.3391 11.1753C24.1557 10.5695 24.0206 9.94633 23.8372 9.34049C23.0745 6.77865 22.3119 4.22547 21.5107 1.67229C21.279 0.945283 20.999 0.209621 20.0723 0.00190452C19.3965 -0.02406 18.9042 0.218276 18.7015 0.737567C18.325 1.68095 17.9195 2.63298 17.7071 3.61098C17.0024 6.83058 16.4232 10.0675 15.7185 13.2871C14.5697 18.6185 13.7299 19.233 7.68672 19.3541C6.70206 19.3715 5.70774 19.2849 4.73273 19.3541C3.62257 19.4407 2.46414 19.5186 1.4312 19.8561C-0.30644 20.41 -0.509165 21.8208 1.08368 22.617C2.79236 23.4652 4.62654 24.2268 6.50899 24.6682C11.664 25.8712 14.1643 28.9957 15.1393 33.4702C15.8923 36.9321 16.819 40.3595 17.6396 43.8128C17.8616 44.7475 18.3057 45.5957 19.4448 45.6303C20.6225 45.6735 21.028 44.7561 21.3272 43.882C22.2636 41.1124 23.3448 38.3689 24.1075 35.556C24.7253 33.2971 26.154 31.7739 28.2392 30.5362C30.9422 28.9437 33.9348 27.784 36.493 25.9665C37.8831 24.9798 40.422 24.4519 39.9683 22.6343V22.617Z" fill="var(--fill-0, #EA5414)"/>
<path id="Vector_2" d="M68.566 52.485C67.2145 52.1475 65.863 51.7926 64.5019 51.4637C61.6927 50.78 59.9454 49.3346 59.2021 46.6516C58.5263 44.2283 57.252 41.9347 56.1901 39.5979C55.8812 38.9142 55.4758 38.2045 54.578 38.0833C53.8636 38.0833 53.381 38.3603 53.1493 38.845C52.7535 39.6499 52.348 40.4634 52.126 41.3116C50.649 47.0497 47.724 51.9138 42.0187 55.1767C41.3333 55.5661 40.3872 55.9729 40.5707 56.8557C40.7927 58.0068 42.009 57.851 42.9454 57.9722C43.6405 58.0587 44.3452 58.0847 45.0499 58.1453C47.3378 58.327 49.0175 59.2964 50.0119 61.1831C50.7262 62.5506 51.4502 63.9181 52.2129 65.2682C52.9079 66.5059 53.5547 67.7781 54.4235 68.9119C55.5916 70.4265 56.6632 70.3573 57.4741 68.7042C58.0919 67.4492 58.6518 66.0904 58.8159 64.7403C59.26 61.1658 60.959 58.5694 64.8301 57.1932C66.2492 56.6912 67.5235 55.8344 68.8556 55.1161C69.4638 54.7872 70.0623 54.3891 69.9948 53.6534C69.9175 52.9091 69.2707 52.6408 68.566 52.4677V52.485Z" fill="var(--fill-0, #EA5414)"/>
</g>
</svg>
