<svg preserveAspectRatio="none" width="100%" height="100%" overflow="visible" style="display: block;" viewBox="0 0 200 177" fill="none" xmlns="http://www.w3.org/2000/svg">
<g id="Group 40">
<path id="Vector" d="M126.661 44.3288C141.287 42.9052 154.774 38.7591 166.653 30.4878L150.585 22.6633L113.644 14.8284C113.55 19.1199 111.46 23.5985 107.72 26.6535C101.254 31.9426 90.9632 31.4126 84.7889 25.4793C81.8428 22.6529 79.9206 19.1199 79.3146 15.9402L56.2369 21.4267L36.1888 31.0905C51.4417 39.154 67.9795 42.7182 85.259 44.2353C99.1015 45.4406 112.85 45.6796 126.672 44.3392L126.661 44.3288Z" fill="var(--fill-0, black)"/>
<path id="Vector_2" d="M191.653 56.6317L198.13 51.6543L200 40.5878L198.934 39.0187L193.324 35.4753L171.323 31.7969C167.238 35.0389 162.662 37.6471 157.908 40.0059C146.929 45.4716 135.081 47.6226 122.994 48.5474C101.692 50.1892 80.5892 48.6305 59.7054 44.1311C49.5717 41.949 40.3468 37.6367 31.3623 32.7529L23.809 33.262L6.61304 37.3561L0 45.0975L1.4417 51.779L6.68617 55.9147L27.9043 61.7545C27.9043 61.7545 32.4175 63.043 32.5951 62.4091C33.3264 63.1781 34.3502 64.3211 34.3502 64.3211L34.1412 77.975L33.6607 93.9982L36.1158 150.02L45.0376 168.287L47.0852 170.303L53.7296 173.815L146.814 176.07L160.74 172.392L168.021 166.739L173.161 156.524L174.77 142.278L170.832 81.2898C169.818 75.0551 170.059 65.1524 170.059 65.1524L173.015 64.1964L191.642 56.6109L191.653 56.6317ZM16.2975 48.1733C15.4304 47.8304 14.2499 46.4276 14.417 45.8249C14.6782 44.8273 15.7856 43.57 16.7677 43.3102C19.2227 42.6764 21.8032 42.375 24.3418 42.2503C27.0372 42.1257 29.7534 42.3646 33.0965 42.4582C33.5562 45.3781 33.9427 47.8408 34.4024 50.7919C27.8521 51.2698 21.9599 50.4386 16.308 48.1629L16.2975 48.1733ZM170.403 51.0932C170.978 48.9734 171.26 47.4043 171.855 45.96C172.179 45.1599 172.942 44.1415 173.684 43.9649C177.413 43.0609 181.237 42.375 184.998 43.7363C185.928 44.0792 187.349 45.0975 187.296 45.6898C187.202 46.7185 186.346 48.1213 185.426 48.5474C180.913 50.6256 176.149 51.7167 170.403 51.0932Z" fill="var(--fill-0, #00B1B2)"/>
<path id="Vector_3" d="M96.4271 26.3519C103.5 26.6532 108.765 22.3409 109.883 15.3165C110.061 14.1943 110.249 13.072 110.426 11.9498L101.452 0.966375L95.3615 0L85.3532 5.96451L82.6056 13.0097L82.5742 13.0513C82.5951 13.3214 82.6265 13.5812 82.6787 13.8306C84.2144 21.2706 89.4798 26.061 96.4376 26.3623L96.4271 26.3519Z" fill="var(--fill-0, #00B1B2)"/>
</g>
</svg>
