<svg preserveAspectRatio="none" width="100%" height="100%" overflow="visible" style="display: block;" viewBox="0 0 366 60" fill="none" xmlns="http://www.w3.org/2000/svg">
<g id="_&#227;&#131;&#172;&#227;&#130;&#164;&#227;&#131;&#164;&#227;&#131;&#188;_1">
<path id="Vector" d="M301.19 13.8234H284.765C283.039 13.8234 281.242 12.9023 279.426 11.0859L277.435 9.09562V15.949L277.216 16.168C275.574 17.8105 273.951 18.7187 272.379 18.8797V18.0166C272.379 16.2904 273.3 14.4933 275.117 12.6769L277.107 10.6866H261.365L263.355 12.6769C265.171 14.4933 266.092 16.2904 266.092 18.0166V18.8797C264.521 18.7187 262.898 17.8105 261.255 16.168L259.265 14.1777V29.6622L261.255 27.6719C263.072 25.8555 264.869 24.9344 266.595 24.9344H272.121C269.216 31.3047 264.611 36.58 258.415 40.6057L257.642 41.1081L259.877 47.4076L261.113 46.6217C262.898 45.4881 264.566 44.245 266.099 42.9245V52.6764C266.099 54.4026 265.178 56.1933 263.361 58.0097L261.371 60H277.113L275.123 58.0097C274.485 57.372 273.964 56.7408 273.545 56.116L277.094 59.3108L277.86 58.7504C281.854 55.8133 285.029 52.6249 287.297 49.2755C289.57 45.9261 291.316 41.7651 292.469 36.902C293.551 32.361 294.189 26.6091 294.376 19.8008H301.809C302.086 19.8008 302.137 19.8394 302.144 19.8459C302.144 19.8459 302.189 19.9039 302.189 20.1808V22.4417C302.189 31.5945 301.983 38.4479 301.577 42.8215C301.061 48.348 300.411 50.1257 300.07 50.6925C299.58 51.5106 298.865 51.8777 297.757 51.8777C296.243 51.8777 293.77 51.6716 290.401 51.2722L289.094 51.1177V57.2625L290.124 57.3849C293.332 57.7649 296.121 57.9582 298.427 57.9582C299.812 57.9582 300.971 57.81 301.886 57.5202C302.904 57.1981 303.87 56.4831 304.746 55.401C305.59 54.364 306.234 52.9469 306.665 51.2014C307.071 49.5718 307.432 47.3045 307.747 44.4511C308.057 41.617 308.269 38.216 308.372 34.3449C308.475 30.4609 308.527 25.63 308.527 19.994V9.09562L306.536 11.0859C304.72 12.9023 302.923 13.8234 301.197 13.8234H301.19ZM286.292 35.4657C285.3 39.7168 283.806 43.2852 281.854 46.0742C279.889 48.8761 277.062 51.5879 273.461 54.1321L272.759 54.6281C272.501 53.9646 272.373 53.3141 272.373 52.67V40.9793C273.822 42.6669 275.316 44.4768 276.811 46.3641L277.584 47.3367L282.009 43.3239L281.377 42.4736C281.107 42.1129 280.366 41.1983 278.975 39.5236C280.894 37.1339 282.633 34.4866 284.141 31.659L284.669 30.667L279.735 27.8071L279.162 28.8571C277.983 31.0213 276.611 33.1147 275.091 35.0728L274.215 34.1195C276.07 31.221 277.719 27.878 279.123 24.1808L279.2 23.9811V22.7573L279.419 22.5383C281.236 20.7219 283.033 19.8008 284.759 19.8008H287.98C287.806 26.1324 287.239 31.4013 286.292 35.4657Z" fill="var(--fill-0, #52207D)"/>
<path id="Vector_2" d="M364.739 54.2737C362.632 49.2303 360.062 44.335 357.099 39.7167L356.533 38.8278L351.006 41.6362L351.702 42.7247C352.404 43.8197 353.093 44.934 353.75 46.0548L349.138 45.3785L349.054 46.6345C348.951 48.1675 348.874 49.2174 348.822 49.7971C348.777 50.3253 348.674 50.9436 348.513 51.6393C348.346 52.3736 348.249 52.6312 348.256 52.6505C348.223 52.6827 348.095 52.7858 347.785 52.9661C347.418 53.1787 347.174 53.2367 347.038 53.2496L345.177 53.4041C343.818 53.5394 341.995 53.6038 339.747 53.6038C337.499 53.6038 335.676 53.5394 334.401 53.4041C334.021 53.3719 333.512 53.314 333.151 53.198C333.1 52.9211 333.009 52.1803 333.009 50.3575V47.021C333.009 45.4429 333.782 43.8004 335.315 42.1321C338.22 45.0629 340.726 47.9871 342.748 50.8277L343.451 51.8132L348.23 48.1224L347.573 47.2078C345.428 44.2384 343.09 41.4751 340.61 38.976C341.531 39.0211 342.201 39.0404 342.626 39.0404C345.125 39.0404 346.652 38.6153 347.438 37.7071C347.94 37.1274 348.513 35.9808 348.513 32.2772V24.5092C352.326 28.2128 355.618 32.1033 358.291 36.0646L358.909 36.9792L364.249 33.778L363.56 32.7603C360.681 28.4962 357.151 24.4061 353.074 20.5994L352.649 20.2065H355.663C357.383 20.2065 359.18 21.1276 360.996 22.944L362.987 24.9343V9.70741L360.996 11.6977C359.18 13.5141 357.383 14.4352 355.663 14.4352H337.203C339.071 12.4063 342.6 11.3499 344.765 9.98438C348.507 7.62692 350.401 4.61246 348.507 1.5336C346.723 -1.37136 340.397 -0.302129 340.501 6.05528C339.554 1.28239 335.586 1.4563 335 4.75417C334.356 8.89583 339.805 9.02465 337.029 14.4288H322.491C320.765 14.4288 318.974 13.5077 317.151 11.6913L315.161 9.70097V24.9343L317.151 22.944C318.968 21.1276 320.765 20.2065 322.491 20.2065H323.992L323.58 21.134C321.673 25.4045 318.762 29.2176 314.91 32.4769L313.815 33.4044L318.768 37.2884L319.496 36.6765C323.895 32.9406 327.2 28.4962 329.312 23.4528L329.776 22.3449L324.249 20.2129H331.567C331.444 24.2193 330.858 27.3948 329.821 29.6492C328.7 32.0775 326.652 34.3384 323.721 36.3673L322.472 37.2369L325.396 39.7038H321.783L322.729 40.6507L320.565 39.8777L320.198 41.0243C318.71 45.6619 316.494 49.8551 313.615 53.4943L312.849 54.4605L317.879 58.0096L318.562 57.1593C321.66 53.314 324.043 48.9275 325.654 44.1096C326.214 45.1015 326.497 46.0806 326.497 47.0339V51.0918C326.497 55.446 327.096 56.7793 327.612 57.4492C328.423 58.5055 330.182 59.0852 333.145 59.2849C335.631 59.4202 337.911 59.491 339.934 59.491C342.304 59.491 344.578 59.4009 346.703 59.2269C347.966 59.1239 348.9 59.0273 349.518 58.9371C350.24 58.834 350.98 58.5893 351.734 58.2028C352.565 57.7777 353.125 57.3204 353.441 56.8179C353.711 56.3864 353.975 55.7101 354.297 54.6215C354.587 53.6167 354.787 52.5926 354.877 51.5749C354.948 50.8341 355.025 49.8164 355.128 48.5153C356.636 51.2528 357.982 54.0289 359.141 56.7793L359.611 57.8872L365.164 55.3172L364.732 54.2801L364.739 54.2737ZM348.5 20.5865C348.5 20.3095 348.539 20.258 348.546 20.258C348.546 20.258 348.603 20.2129 348.88 20.2129H352.043L348.5 22.5382V20.5929V20.5865ZM335.567 32.1226C336.893 29.1597 337.628 25.1533 337.757 20.2065H341.847C342.124 20.2065 342.175 20.2451 342.182 20.2516C342.182 20.2516 342.227 20.3095 342.227 20.5865V32.3931C342.227 32.786 342.214 33.063 342.195 33.2498C342.008 33.2691 341.731 33.282 341.338 33.282C340.848 33.282 339.579 33.2369 336.275 33.0308L335.174 32.9599C335.315 32.683 335.451 32.406 335.573 32.129L335.567 32.1226ZM334.961 33.34L335.367 38.6732L337.029 38.7763L335.863 39.6909H329.486C331.869 37.7715 333.705 35.6395 334.961 33.3335V33.34Z" fill="var(--fill-0, #52207D)"/>
<path id="Vector_3" d="M41.7923 32.5926C41.7472 32.161 41.6055 31.7101 41.3608 31.3108C41.116 30.905 40.7617 30.5636 40.3753 30.3317C39.9824 30.0998 39.5637 29.9517 39.1579 29.8937C38.3399 29.7778 37.5862 29.9195 36.9228 30.1707C36.5879 30.2995 36.2787 30.4477 35.9824 30.628L35.7634 30.7633L35.5573 30.905C35.4156 31.0016 35.2868 31.1047 35.1579 31.2077C34.1273 32.0451 33.3609 33.1014 32.794 34.1964C32.7232 34.3317 32.6523 34.4605 32.5879 34.6022C32.472 34.5507 32.356 34.4927 32.2272 34.4412C31.757 34.2479 31.1837 34.1513 30.5912 34.1127C30.501 34.1127 30.4108 34.1449 30.3464 34.2029C28.807 35.6521 24.6524 36.6634 19.7765 36.6312C16.2274 36.6054 13.0648 36.0321 11.0165 35.1497C11.0036 35.1497 10.9972 35.1433 10.9843 35.1368C10.8297 35.0917 10.6687 35.0402 10.5012 34.9887C8.38851 34.3059 6.41752 33.3913 4.395 33.5716C1.96024 33.7906 -0.0751623 34.8019 0.00213147 35.1111C0.0601018 35.3236 3.738 35.5877 5.83137 37.3912C7.73151 39.0273 8.7621 41.0562 10.5076 42.6536C10.5399 42.6858 14.076 45.8227 19.9826 45.9966C18.9456 46.2414 18.0051 46.6407 17.2064 47.156C15.8602 48.0256 14.9263 49.2236 14.6171 50.5634C15.4287 51.974 18.5011 52.8886 22.1017 52.6761C25.7023 52.4635 28.6459 51.201 29.29 49.7003C28.8327 48.412 27.757 47.3299 26.3207 46.6214C25.4704 46.2027 24.4978 45.9193 23.4544 45.7969C28.5429 45.0562 31.3963 42.4604 32.8584 40.2253C32.8134 40.4057 32.794 40.5989 32.8069 40.805C32.8262 41.024 32.8842 41.2624 33.0195 41.4749C33.1547 41.6875 33.3544 41.8421 33.5412 41.9258C33.7344 42.0095 33.9212 42.0546 34.1016 42.0739C34.1918 42.0804 34.2819 42.0868 34.3657 42.0804C34.4494 42.0804 34.5331 42.0675 34.6104 42.0611C35.2545 41.9773 35.8085 41.7519 36.3753 41.5458C35.7763 41.5007 35.1644 41.5264 34.6233 41.4298C34.5589 41.4169 34.4945 41.4041 34.4301 41.3847C34.3721 41.3654 34.3141 41.3525 34.2562 41.3268C34.1467 41.2817 34.0501 41.2237 33.9856 41.1657C33.9212 41.1013 33.8955 41.0434 33.889 40.9983C33.889 40.9467 33.889 40.8823 33.9019 40.8115C33.9728 40.5023 34.3013 40.148 34.6942 39.8839C34.8938 39.7551 35.1193 39.6327 35.364 39.5168C35.6024 39.4009 35.8665 39.2978 36.1305 39.1883C36.3946 39.0788 36.6716 38.9693 36.9615 38.834C37.2513 38.7052 37.5283 38.5635 37.8117 38.4089C38.3721 38.1126 38.9131 37.7519 39.4349 37.3397C39.9501 36.921 40.4397 36.4379 40.8519 35.8518C41.2577 35.2656 41.5862 34.57 41.7344 33.8099C41.8116 33.4364 41.8374 33.0177 41.7859 32.5861L41.7923 32.5926ZM39.5444 33.3913C39.4735 33.7971 39.2996 34.2029 39.0355 34.5958C38.7843 34.9951 38.4429 35.3687 38.0629 35.723C37.6829 36.0772 37.2513 36.4057 36.8004 36.7149C36.575 36.8695 36.3431 37.0176 36.1048 37.1593C35.8729 37.301 35.6153 37.4492 35.3512 37.6038C35.0871 37.7584 34.823 37.9194 34.5525 38.1062C34.2819 38.293 34.0178 38.4927 33.7602 38.7503C33.7022 38.8083 33.6378 38.8727 33.5863 38.9371C34.0307 37.9902 34.1982 37.2238 34.1853 36.8695C34.1531 36.0579 33.9277 35.5297 33.4381 35.1175L33.7022 34.8148C34.4558 33.9452 35.2674 33.1852 36.1756 32.6505C36.6265 32.38 37.0903 32.1739 37.5476 32.0515C38.0049 31.9356 38.4494 31.9034 38.8036 31.9935C38.9775 32.0322 39.1257 32.103 39.2352 32.1803C39.3447 32.2641 39.422 32.3478 39.4799 32.4573C39.5959 32.6634 39.6474 32.9919 39.5572 33.4042L39.5444 33.3913Z" fill="var(--fill-0, #52207D)"/>
<path id="Vector_4" d="M46.6296 52.2063L47.6795 51.414C49.3026 50.1902 50.6038 48.9471 51.5506 47.7168C52.4781 46.5188 53.2768 44.9149 53.9145 42.9632C54.4684 41.2757 54.8742 39.2081 55.1319 36.8119H52.2527C51.396 36.8119 50.4814 37.295 49.5216 38.2483L47.4347 40.3353V28.709L49.5216 30.7959C50.4749 31.7492 51.396 32.2323 52.2527 32.2323H55.4411C55.4733 31.0793 55.4926 29.8426 55.4926 28.548V27.3241H60.2462V28.548C60.2462 29.8362 60.2268 31.0664 60.1946 32.2323H67.3121C68.1688 32.2323 69.0834 31.7492 70.0432 30.7959L72.1301 28.709V35.1952C72.1301 38.4287 72.0721 41.1597 71.9626 43.3111C71.8531 45.4753 71.6856 47.2917 71.4731 48.7023C71.2348 50.2546 70.8676 51.4269 70.3523 52.2836C69.7984 53.1982 69.1349 53.8423 68.3878 54.1966C67.6986 54.5251 66.8483 54.6861 65.8757 54.6861C64.1495 54.6861 62.1463 54.5702 59.9177 54.3512L58.726 54.2288L59.1061 49.5461L60.3685 49.6942C62.1463 49.9068 63.7888 50.0163 65.2509 50.0163C65.8113 50.0163 66.011 49.8295 66.1398 49.6427C66.2429 49.4881 66.61 48.7667 66.9128 46.0421C67.1382 44.026 67.2541 40.915 67.267 36.7991H59.9112C59.4925 41.1082 58.623 44.6057 57.3219 47.2144C55.8984 50.0743 53.6504 52.6958 50.6424 55.0211L49.7342 55.7232L46.6425 52.1934L46.6296 52.2063ZM75.2283 55.2272L77.3152 53.1402C78.2685 52.187 78.7516 51.2659 78.7516 50.4092V33.8812C78.7516 33.0246 78.2685 32.1099 77.3152 31.1502L75.2283 29.0632H87.2088L85.1219 31.1502C84.1686 32.1035 83.6855 33.0246 83.6855 33.8812V50.3706C87.2024 49.9905 90.1589 48.9535 92.4777 47.2659C95.067 45.3851 97.0509 42.5703 98.3778 38.886L98.8093 37.7008L103.273 39.4721L102.867 40.5865C99.3375 50.2997 91.7949 55.2272 80.4585 55.2272H75.2283ZM130.493 45.8553C129.54 44.902 128.619 44.4189 127.762 44.4189H109.978C109.122 44.4189 108.207 44.902 107.247 45.8553L105.16 47.9422V36.1099L107.247 38.1968C108.201 39.1501 109.122 39.6332 109.978 39.6332H127.762C128.619 39.6332 129.534 39.1501 130.493 38.1968L132.58 36.1099V47.9487L130.493 45.8618V45.8553Z" fill="var(--fill-0, #52207D)"/>
<path id="Vector_5" d="M252.257 17.4949C252.437 17.7526 252.618 18.0167 252.54 18.2872C252.489 18.4675 252.334 18.6028 252.076 18.7059C252.019 18.7316 251.864 18.7832 251.632 18.8605C250.209 19.3371 245.88 20.7992 243.89 22.416C242.241 23.4916 241.674 24.606 241.262 25.4175C240.985 25.965 240.759 26.403 240.302 26.4997C240.238 26.622 240.238 26.7444 240.251 27.0536C240.341 28.3676 238.904 29.8362 236.586 30.8474C234.969 31.5109 233.365 31.8909 232.173 31.8909C231.156 31.8909 230.441 31.6139 230.106 31.0922C229.855 30.8281 229.764 30.461 229.855 30.0487C230.183 28.6317 232.586 26.9956 234.125 26.4095C235.503 25.804 236.592 25.5335 237.629 25.5335C237.932 25.5335 238.228 25.5528 238.531 25.5979C238.705 25.6237 238.833 25.6365 238.943 25.6365C239.078 25.6365 239.168 25.6108 239.265 25.5464L239.31 25.5142H239.368C239.6 25.5013 239.716 25.263 239.948 24.7283C240.321 23.8781 240.882 22.5963 242.717 21.2566C244.547 19.6076 248.283 17.9329 250.08 17.1278C250.363 16.999 250.634 16.8766 250.788 16.8057L250.949 16.7156C251.104 16.6383 251.239 16.5996 251.362 16.5996C251.69 16.5996 251.845 16.8573 251.993 17.1149L252.134 17.3403L252.257 17.5143V17.4949ZM185.623 52.8117L186.789 55.1434L184.457 53.9776C181.977 52.7344 180.702 52.4768 180.071 52.4768H170.564C169.746 52.4768 168.883 52.9277 167.994 53.8166L166.506 55.298V46.1065L167.569 47.1693V40.7475L166.506 41.8103V32.6445L167.994 34.1324C168.883 35.0213 169.746 35.4722 170.564 35.4722H180.071C180.702 35.4722 181.977 35.2145 184.457 33.9714L186.789 32.8055L185.623 35.1372C184.38 37.6171 184.122 38.8924 184.122 39.5301V48.4253C184.122 49.0566 184.38 50.3319 185.623 52.8182V52.8117ZM179.749 45.5783L171.62 45.5397C170.802 45.5397 169.939 45.6556 169.05 46.5445L167.994 47.6009C168.883 48.4833 169.746 48.5928 170.564 48.5928L179.749 48.625V45.5783ZM179.749 39.3175L170.557 39.2789C169.907 39.2789 169.23 39.2725 168.535 39.8328L169.05 40.3481C169.939 41.237 170.802 41.6879 171.62 41.6879L179.742 41.7201V39.324L179.749 39.3175ZM197.05 43.588L197.372 44.9793L202.312 43.9101L201.977 42.4737C201.352 39.8006 200.637 37.0631 199.858 34.345L199.478 33.0181L194.576 34.1582L194.995 35.6268C195.723 38.1646 196.412 40.8441 197.05 43.588ZM236.875 31.556C235.175 32.2516 233.455 32.6574 232.173 32.6574C230.602 32.6574 229.855 32.0777 229.5 31.5624C229.107 31.118 228.966 30.506 229.114 29.8748H218.827C218.093 29.8748 217.294 29.4433 216.444 28.593L213.971 26.1196V38.6541L216.444 36.1807C217.294 35.3305 218.093 34.8989 218.827 34.8989H233.114C232.714 39.0535 231.439 42.2483 229.307 44.3932C226.898 46.8215 223.066 48.3416 217.925 48.9277L216.393 49.1016L217.269 54.0291L218.615 53.881C224.863 53.2047 229.668 51.2594 232.901 48.0968C236.154 44.9149 238.003 40.2966 238.389 34.3579C238.698 33.1791 238.756 31.3885 238.756 31.3627L238.705 30.5705C238.176 30.9247 237.571 31.2597 236.888 31.556H236.875ZM149.018 42.1323L150.448 42.4157L151.382 37.4754L149.978 37.192C147.079 36.6058 143.884 36.0068 140.484 35.4206L139.079 35.1823L138.133 40.1098L139.595 40.3546C141.25 40.6315 144.419 41.2306 149.012 42.1388L149.018 42.1323ZM195.549 42.9632C194.75 39.8328 194.042 37.2177 193.43 35.1823L193.043 33.8877L188.174 34.9698L188.605 36.4577C189.314 38.886 190.003 41.4753 190.66 44.1484L191.001 45.5397L195.91 44.3932L195.542 42.9568L195.549 42.9632ZM159.536 31.8394L159.285 33.2435C158.364 38.4222 156.528 42.2096 153.817 44.4962C151.073 46.815 146.719 48.2514 140.883 48.7731L140.252 48.8311C137.765 48.5864 136.902 47.9744 136.902 47.9744L138.145 55.298C139.846 54.2095 141.997 53.7457 141.997 53.7457C148.587 53.0952 153.701 51.2659 157.173 48.2836C160.767 45.1983 163.156 40.419 164.271 34.0938L164.528 32.6445L159.536 31.8458V31.8394ZM151.685 30.0294C148.696 29.4304 145.591 28.87 142.461 28.3547C141.74 27.717 141.005 26.8217 140.535 25.5979L138.751 34.4545C138.751 34.4545 139.801 33.4303 141.482 33.2886C145.044 33.8554 148.142 34.4094 150.68 34.9376L152.103 35.2339L153.115 30.3064L151.685 30.023V30.0294ZM212.418 32.6445L203.388 32.915C203.388 32.915 204.348 33.5269 204.934 34.7765V34.7894C204.792 39.7104 203.884 43.2016 202.235 45.1725C200.792 46.8923 198.241 48.1161 194.647 48.8182C193.52 48.7925 191.665 48.5091 190.022 47.0662L192.58 55.736C192.58 55.736 192.902 54.7827 193.81 53.9325L194.061 53.9003C197.745 53.385 200.741 52.4253 202.963 51.0598C205.275 49.6363 207.021 47.5751 208.135 44.9213C209.14 42.5381 209.739 39.4206 209.919 35.6654C210.351 34.6864 211.098 33.5398 212.412 32.651L212.418 32.6445Z" fill="var(--fill-0, #52207D)"/>
</g>
</svg>
