<svg preserveAspectRatio="none" width="100%" height="100%" overflow="visible" style="display: block;" viewBox="0 0 150 200" fill="none" xmlns="http://www.w3.org/2000/svg">
<g id="_&#227;&#131;&#172;&#227;&#130;&#164;&#227;&#131;&#164;&#227;&#131;&#188;_1">
<g id="Group 197">
<path id="Vector" d="M100.383 70.3397C81.5978 64.0384 63.122 64.8097 44.7346 71.1273C56.5507 74.8687 94.7494 74.1959 100.383 70.3397Z" fill="var(--fill-0, #00B1B2)"/>
<path id="Vector_2" d="M40.3744 68.9606C56.3385 63.4141 72.7447 61.125 89.6374 64.4561C94.9351 65.4981 100.136 67.0653 105.274 68.6898C107.344 69.3462 109.13 69.4857 111.173 68.8785C115.357 67.6396 119.425 66.1791 123.325 64.3823L118.293 61.6337L87.8951 53.3633L59.8939 53.2402L32.441 60.3374L24.0301 64.1608L23.7294 64.2182C26.9133 65.8509 30.115 67.4509 33.352 68.9688C35.6073 70.0272 37.8538 69.8303 40.3744 68.9606Z" fill="var(--fill-0, #00B1B2)"/>
<path id="Vector_3" d="M149.407 82.59L141.005 73.3843L128.225 71.3003L127.155 70.3157L126.96 68.445L125.784 66.5825C116.568 71.0295 106.68 73.6058 96.3591 74.9514C79.2807 77.1749 62.2111 77.6097 45.1415 74.8611C36.0672 73.4007 27.4617 70.8326 19.7759 65.9672C19.3514 65.6964 18.9357 65.4092 18.5289 65.1221L7.55307 67.042L1.93691 71.7843L0 77.1256L1.34434 83.632L6.17335 88.6697L20.6781 95.3894C20.6781 95.3894 23.3491 96.0294 23.5967 96.4643C23.7028 96.653 22.5796 115.688 22.5796 115.688L22.8184 138.046L22.5 157.918L25.1356 184.805L25.7547 187.545L29.1598 191.943L38.7647 196.948L63.635 200L103.479 198.154L107.335 196.997L115.065 195.233L122.202 185.01L123.723 168.239L123.281 151.633L124.201 129.767L125.545 109.329L126.129 104.431L126.359 104.21C126.448 103.447 128.411 102.232 128.411 102.232L140.174 99.541L147.869 94.0603L150 90.0153L149.39 82.59H149.407ZM14.319 81.9254C12.9127 80.4239 12.0018 78.7338 12.8331 76.7318C13.6645 74.7216 15.6545 74.1145 17.7152 73.8109C18.4758 73.7042 19.2895 73.9422 20.3685 74.0571C20.8815 77.7246 21.3856 81.2936 21.934 85.1417C18.6527 85.1417 16.2647 84.0094 14.319 81.9254ZM132.17 91.4511C130.684 91.9352 129.057 92.0665 127.022 92.4521C127.252 88.0708 127.465 84.0504 127.695 79.8414C131.701 80.0793 134.213 81.909 136.079 84.4115C137.751 86.6514 135.681 90.2943 132.17 91.4511Z" fill="var(--fill-0, #00B1B2)"/>
</g>
<path id="Vector_4" d="M15.5749 5.07943L13.6115 9.92845L15.5484 13.9406L20.4216 18.4778L30.8844 24.3196L116.117 48.3021L120.982 47.9575L125.811 41.7957L124.652 38.2021L114.295 28.865L87.6297 17.4194C87.6297 17.4194 82.6681 20.5044 79.3514 21.1115C74.1156 22.0633 69.3131 20.6028 65.0855 17.9117C62.9275 16.5333 60.9198 14.5888 59.602 12.4965C58.0189 9.96947 55.2771 6.06401 55.2771 6.06401L37.4469 2.35545L20.3774 2.50314L15.5572 5.07943H15.5749Z" fill="var(--fill-0, black)"/>
<path id="Vector_5" d="M63.2371 12.9143C66.934 17.1233 71.9665 18.912 77.6622 18.6166C81.3945 18.4279 83.9948 16.5654 85.0207 13.8578L84.95 13.7676L85.7371 6.7197L79.5638 1.5507L70.6487 0L62.7153 3.14242C60.3008 6.14537 60.4158 9.68982 63.2548 12.9143H63.2371Z" fill="var(--fill-0, #00B1B2)"/>
</g>
</svg>
