<svg preserveAspectRatio="none" width="100%" height="100%" overflow="visible" style="display: block;" viewBox="0 0 30 90" fill="none" xmlns="http://www.w3.org/2000/svg">
<g id="_&#227;&#131;&#172;&#227;&#130;&#164;&#227;&#131;&#164;&#227;&#131;&#188;_1" clip-path="url(#clip0_0_6)">
<path id="Vector" d="M5.18762 4.12159L1.5096 9.64966L0.124503 15.1468L0 20.3709L9.23915 53.3642L9.01608 72.1072H8.9227L8.36763 87.2849L10.2974 89.8351L17.4563 90L19.521 87.7898L20.185 83.3694L18.8362 69.7166L20.185 51.7362L29.4034 23.6528L30 13.9413L29.3515 8.77898L28.812 7.47553L22.7477 1.16435L11.5269 0L5.18762 4.12159ZM14.1829 85.3787C13.2647 85.3117 12.5852 84.5131 12.7252 83.6167C12.8653 82.7357 13.41 82.2308 14.3178 82.1999C15.2049 82.1741 15.9467 82.9727 15.9156 83.864C15.8793 84.7656 15.1012 85.4508 14.1881 85.3787H14.1829ZM22.3327 11.1128C22.9396 12.0402 23.4377 13.0448 23.8579 14.0701C23.9927 14.3998 23.7126 14.8944 23.6192 15.3117C23.1523 15.1468 22.5973 15.0902 22.2445 14.7965C21.9073 14.5131 21.8087 13.9619 21.5597 13.56C21.0565 12.7512 20.6104 11.8856 19.9879 11.1798C17.7624 8.68109 15.153 8.49047 12.6319 10.711C10.0744 12.9624 8.61663 15.8217 8.44026 19.2427C8.35207 20.984 8.35725 22.7357 8.31057 24.4771C8.295 25.0747 8.24313 25.6723 8.212 26.27C4.94899 19.8094 6.90472 13.8125 10.6294 9.96909C14.4527 6.03297 19.3291 6.51211 22.3379 11.1077L22.3327 11.1128Z" fill="var(--fill-0, #C8C8C8)"/>
</g>
<defs>
<clipPath id="clip0_0_6">
<rect width="30" height="90" fill="white"/>
</clipPath>
</defs>
</svg>
